<?xml version="1.0" encoding="utf-8" standalone="no"?>
<!DOCTYPE svg PUBLIC "-//W3C//DTD SVG 1.1//EN"
  "http://www.w3.org/Graphics/SVG/1.1/DTD/svg11.dtd">
<!-- Created with matplotlib (http://matplotlib.org/) -->
<svg height="209pt" version="1.1" viewBox="0 0 568 209" width="568pt" xmlns="http://www.w3.org/2000/svg" xmlns:xlink="http://www.w3.org/1999/xlink">
 <defs>
  <style type="text/css">
*{stroke-linecap:butt;stroke-linejoin:round;}
  </style>
 </defs>
 <g id="figure_1">
  <g id="patch_1">
   <path d="
M0 209.534
L568.605 209.534
L568.605 2.84217e-14
L0 2.84217e-14
z
" style="fill:#607d8b;"/>
  </g>
  <g id="axes_1">
   <g id="patch_2">
    <path d="
M54.3731 168.042
L560.744 168.042
L560.744 23.1418
L54.3731 23.1418
z
" style="fill:#607d8b;"/>
   </g>
   <g id="matplotlib.axis_1">
    <g id="xtick_1">
     <g id="line2d_1">
      <path clip-path="url(#pe16bd34ac1)" d="
M64.111 168.042
L64.111 23.1418" style="fill:none;stroke:#ffffff;stroke-dasharray:6.000000,6.000000;stroke-dashoffset:0.0;stroke-linejoin:miter;stroke-width:0.1;"/>
     </g>
     <g id="line2d_2">
      <defs>
       <path d="
M0 0
L0 4" id="mb6a6ebaedb" style="stroke:#212121;stroke-width:0.5;"/>
      </defs>
      <g>
       <use style="fill:#212121;stroke:#212121;stroke-width:0.5;" x="64.1110176066" xlink:href="#mb6a6ebaedb" y="168.04175"/>
      </g>
     </g>
     <g id="line2d_3">
      <defs>
       <path d="
M0 0
L0 -4" id="m297b8013ca" style="stroke:#212121;stroke-width:0.5;"/>
      </defs>
      <g>
       <use style="fill:#212121;stroke:#212121;stroke-width:0.5;" x="64.1110176066" xlink:href="#m297b8013ca" y="23.14175"/>
      </g>
     </g>
     <g id="text_1">
      <!-- 0 -->
      <defs>
       <path d="
M31.7812 66.4062
Q24.1719 66.4062 20.3281 58.9062
Q16.5 51.4219 16.5 36.375
Q16.5 21.3906 20.3281 13.8906
Q24.1719 6.39062 31.7812 6.39062
Q39.4531 6.39062 43.2812 13.8906
Q47.125 21.3906 47.125 36.375
Q47.125 51.4219 43.2812 58.9062
Q39.4531 66.4062 31.7812 66.4062
M31.7812 74.2188
Q44.0469 74.2188 50.5156 64.5156
Q56.9844 54.8281 56.9844 36.375
Q56.9844 17.9688 50.5156 8.26562
Q44.0469 -1.42188 31.7812 -1.42188
Q19.5312 -1.42188 13.0625 8.26562
Q6.59375 17.9688 6.59375 36.375
Q6.59375 54.8281 13.0625 64.5156
Q19.5312 74.2188 31.7812 74.2188" id="BitstreamVeraSans-Roman-30"/>
      </defs>
      <g style="fill:#212121;" transform="translate(61.5914863566 183.6401875)scale(0.1 -0.1)">
       <use xlink:href="#BitstreamVeraSans-Roman-30"/>
      </g>
     </g>
    </g>
    <g id="xtick_2">
     <g id="line2d_4">
      <path clip-path="url(#pe16bd34ac1)" d="
M162.474 168.042
L162.474 23.1418" style="fill:none;stroke:#ffffff;stroke-dasharray:6.000000,6.000000;stroke-dashoffset:0.0;stroke-linejoin:miter;stroke-width:0.1;"/>
     </g>
     <g id="line2d_5">
      <g>
       <use style="fill:#212121;stroke:#212121;stroke-width:0.5;" x="162.473569189" xlink:href="#mb6a6ebaedb" y="168.04175"/>
      </g>
     </g>
     <g id="line2d_6">
      <g>
       <use style="fill:#212121;stroke:#212121;stroke-width:0.5;" x="162.473569189" xlink:href="#m297b8013ca" y="23.14175"/>
      </g>
     </g>
     <g id="text_2">
      <!-- 2 -->
      <defs>
       <path d="
M19.1875 8.29688
L53.6094 8.29688
L53.6094 0
L7.32812 0
L7.32812 8.29688
Q12.9375 14.1094 22.625 23.8906
Q32.3281 33.6875 34.8125 36.5312
Q39.5469 41.8438 41.4219 45.5312
Q43.3125 49.2188 43.3125 52.7812
Q43.3125 58.5938 39.2344 62.25
Q35.1562 65.9219 28.6094 65.9219
Q23.9688 65.9219 18.8125 64.3125
Q13.6719 62.7031 7.8125 59.4219
L7.8125 69.3906
Q13.7656 71.7812 18.9375 73
Q24.125 74.2188 28.4219 74.2188
Q39.75 74.2188 46.4844 68.5469
Q53.2188 62.8906 53.2188 53.4219
Q53.2188 48.9219 51.5312 44.8906
Q49.8594 40.875 45.4062 35.4062
Q44.1875 33.9844 37.6406 27.2188
Q31.1094 20.4531 19.1875 8.29688" id="BitstreamVeraSans-Roman-32"/>
      </defs>
      <g style="fill:#212121;" transform="translate(160.159506689 183.6401875)scale(0.1 -0.1)">
       <use xlink:href="#BitstreamVeraSans-Roman-32"/>
      </g>
     </g>
    </g>
    <g id="xtick_3">
     <g id="line2d_7">
      <path clip-path="url(#pe16bd34ac1)" d="
M260.836 168.042
L260.836 23.1418" style="fill:none;stroke:#ffffff;stroke-dasharray:6.000000,6.000000;stroke-dashoffset:0.0;stroke-linejoin:miter;stroke-width:0.1;"/>
     </g>
     <g id="line2d_8">
      <g>
       <use style="fill:#212121;stroke:#212121;stroke-width:0.5;" x="260.83612077" xlink:href="#mb6a6ebaedb" y="168.04175"/>
      </g>
     </g>
     <g id="line2d_9">
      <g>
       <use style="fill:#212121;stroke:#212121;stroke-width:0.5;" x="260.83612077" xlink:href="#m297b8013ca" y="23.14175"/>
      </g>
     </g>
     <g id="text_3">
      <!-- 4 -->
      <defs>
       <path d="
M37.7969 64.3125
L12.8906 25.3906
L37.7969 25.3906
z

M35.2031 72.9062
L47.6094 72.9062
L47.6094 25.3906
L58.0156 25.3906
L58.0156 17.1875
L47.6094 17.1875
L47.6094 0
L37.7969 0
L37.7969 17.1875
L4.89062 17.1875
L4.89062 26.7031
z
" id="BitstreamVeraSans-Roman-34"/>
      </defs>
      <g style="fill:#212121;" transform="translate(258.17987077 183.6401875)scale(0.1 -0.1)">
       <use xlink:href="#BitstreamVeraSans-Roman-34"/>
      </g>
     </g>
    </g>
    <g id="xtick_4">
     <g id="line2d_10">
      <path clip-path="url(#pe16bd34ac1)" d="
M359.199 168.042
L359.199 23.1418" style="fill:none;stroke:#ffffff;stroke-dasharray:6.000000,6.000000;stroke-dashoffset:0.0;stroke-linejoin:miter;stroke-width:0.1;"/>
     </g>
     <g id="line2d_11">
      <g>
       <use style="fill:#212121;stroke:#212121;stroke-width:0.5;" x="359.198672352" xlink:href="#mb6a6ebaedb" y="168.04175"/>
      </g>
     </g>
     <g id="line2d_12">
      <g>
       <use style="fill:#212121;stroke:#212121;stroke-width:0.5;" x="359.198672352" xlink:href="#m297b8013ca" y="23.14175"/>
      </g>
     </g>
     <g id="text_4">
      <!-- 6 -->
      <defs>
       <path d="
M33.0156 40.375
Q26.375 40.375 22.4844 35.8281
Q18.6094 31.2969 18.6094 23.3906
Q18.6094 15.5312 22.4844 10.9531
Q26.375 6.39062 33.0156 6.39062
Q39.6562 6.39062 43.5312 10.9531
Q47.4062 15.5312 47.4062 23.3906
Q47.4062 31.2969 43.5312 35.8281
Q39.6562 40.375 33.0156 40.375
M52.5938 71.2969
L52.5938 62.3125
Q48.875 64.0625 45.0938 64.9844
Q41.3125 65.9219 37.5938 65.9219
Q27.8281 65.9219 22.6719 59.3281
Q17.5312 52.7344 16.7969 39.4062
Q19.6719 43.6562 24.0156 45.9219
Q28.375 48.1875 33.5938 48.1875
Q44.5781 48.1875 50.9531 41.5156
Q57.3281 34.8594 57.3281 23.3906
Q57.3281 12.1562 50.6875 5.35938
Q44.0469 -1.42188 33.0156 -1.42188
Q20.3594 -1.42188 13.6719 8.26562
Q6.98438 17.9688 6.98438 36.375
Q6.98438 53.6562 15.1875 63.9375
Q23.3906 74.2188 37.2031 74.2188
Q40.9219 74.2188 44.7031 73.4844
Q48.4844 72.75 52.5938 71.2969" id="BitstreamVeraSans-Roman-36"/>
      </defs>
      <g style="fill:#212121;" transform="translate(356.681484852 183.6401875)scale(0.1 -0.1)">
       <use xlink:href="#BitstreamVeraSans-Roman-36"/>
      </g>
     </g>
    </g>
    <g id="xtick_5">
     <g id="line2d_13">
      <path clip-path="url(#pe16bd34ac1)" d="
M457.561 168.042
L457.561 23.1418" style="fill:none;stroke:#ffffff;stroke-dasharray:6.000000,6.000000;stroke-dashoffset:0.0;stroke-linejoin:miter;stroke-width:0.1;"/>
     </g>
     <g id="line2d_14">
      <g>
       <use style="fill:#212121;stroke:#212121;stroke-width:0.5;" x="457.561223934" xlink:href="#mb6a6ebaedb" y="168.04175"/>
      </g>
     </g>
     <g id="line2d_15">
      <g>
       <use style="fill:#212121;stroke:#212121;stroke-width:0.5;" x="457.561223934" xlink:href="#m297b8013ca" y="23.14175"/>
      </g>
     </g>
     <g id="text_5">
      <!-- 8 -->
      <defs>
       <path d="
M31.7812 34.625
Q24.75 34.625 20.7188 30.8594
Q16.7031 27.0938 16.7031 20.5156
Q16.7031 13.9219 20.7188 10.1562
Q24.75 6.39062 31.7812 6.39062
Q38.8125 6.39062 42.8594 10.1719
Q46.9219 13.9688 46.9219 20.5156
Q46.9219 27.0938 42.8906 30.8594
Q38.875 34.625 31.7812 34.625
M21.9219 38.8125
Q15.5781 40.375 12.0312 44.7188
Q8.5 49.0781 8.5 55.3281
Q8.5 64.0625 14.7188 69.1406
Q20.9531 74.2188 31.7812 74.2188
Q42.6719 74.2188 48.875 69.1406
Q55.0781 64.0625 55.0781 55.3281
Q55.0781 49.0781 51.5312 44.7188
Q48 40.375 41.7031 38.8125
Q48.8281 37.1562 52.7969 32.3125
Q56.7812 27.4844 56.7812 20.5156
Q56.7812 9.90625 50.3125 4.23438
Q43.8438 -1.42188 31.7812 -1.42188
Q19.7344 -1.42188 13.25 4.23438
Q6.78125 9.90625 6.78125 20.5156
Q6.78125 27.4844 10.7812 32.3125
Q14.7969 37.1562 21.9219 38.8125
M18.3125 54.3906
Q18.3125 48.7344 21.8438 45.5625
Q25.3906 42.3906 31.7812 42.3906
Q38.1406 42.3906 41.7188 45.5625
Q45.3125 48.7344 45.3125 54.3906
Q45.3125 60.0625 41.7188 63.2344
Q38.1406 66.4062 31.7812 66.4062
Q25.3906 66.4062 21.8438 63.2344
Q18.3125 60.0625 18.3125 54.3906" id="BitstreamVeraSans-Roman-38"/>
      </defs>
      <g style="fill:#212121;" transform="translate(455.061223934 183.6401875)scale(0.1 -0.1)">
       <use xlink:href="#BitstreamVeraSans-Roman-38"/>
      </g>
     </g>
    </g>
    <g id="xtick_6">
     <g id="line2d_16">
      <path clip-path="url(#pe16bd34ac1)" d="
M555.924 168.042
L555.924 23.1418" style="fill:none;stroke:#ffffff;stroke-dasharray:6.000000,6.000000;stroke-dashoffset:0.0;stroke-linejoin:miter;stroke-width:0.1;"/>
     </g>
     <g id="line2d_17">
      <g>
       <use style="fill:#212121;stroke:#212121;stroke-width:0.5;" x="555.923775516" xlink:href="#mb6a6ebaedb" y="168.04175"/>
      </g>
     </g>
     <g id="line2d_18">
      <g>
       <use style="fill:#212121;stroke:#212121;stroke-width:0.5;" x="555.923775516" xlink:href="#m297b8013ca" y="23.14175"/>
      </g>
     </g>
     <g id="text_6">
      <!-- 10 -->
      <defs>
       <path d="
M12.4062 8.29688
L28.5156 8.29688
L28.5156 63.9219
L10.9844 60.4062
L10.9844 69.3906
L28.4219 72.9062
L38.2812 72.9062
L38.2812 8.29688
L54.3906 8.29688
L54.3906 0
L12.4062 0
z
" id="BitstreamVeraSans-Roman-31"/>
      </defs>
      <g style="fill:#212121;" transform="translate(550.442525516 183.6401875)scale(0.1 -0.1)">
       <use xlink:href="#BitstreamVeraSans-Roman-31"/>
       <use x="63.623046875" xlink:href="#BitstreamVeraSans-Roman-30"/>
      </g>
     </g>
    </g>
    <g id="xtick_7">
     <g id="line2d_19">
      <path clip-path="url(#pe16bd34ac1)" d="
M88.7017 168.042
L88.7017 23.1418" style="fill:none;stroke:#ffffff;stroke-dasharray:1.000000,3.000000;stroke-dashoffset:0.0;stroke-linejoin:miter;stroke-width:0.1;"/>
     </g>
     <g id="line2d_20">
      <defs>
       <path d="
M0 0
L0 2" id="mef4bfa8baf" style="stroke:#212121;stroke-width:0.5;"/>
      </defs>
      <g>
       <use style="fill:#212121;stroke:#212121;stroke-width:0.5;" x="88.7016555021" xlink:href="#mef4bfa8baf" y="168.04175"/>
      </g>
     </g>
     <g id="line2d_21">
      <defs>
       <path d="
M0 0
L0 -2" id="mfe4998aa38" style="stroke:#212121;stroke-width:0.5;"/>
      </defs>
      <g>
       <use style="fill:#212121;stroke:#212121;stroke-width:0.5;" x="88.7016555021" xlink:href="#mfe4998aa38" y="23.14175"/>
      </g>
     </g>
    </g>
    <g id="xtick_8">
     <g id="line2d_22">
      <path clip-path="url(#pe16bd34ac1)" d="
M113.292 168.042
L113.292 23.1418" style="fill:none;stroke:#ffffff;stroke-dasharray:1.000000,3.000000;stroke-dashoffset:0.0;stroke-linejoin:miter;stroke-width:0.1;"/>
     </g>
     <g id="line2d_23">
      <g>
       <use style="fill:#212121;stroke:#212121;stroke-width:0.5;" x="113.292293398" xlink:href="#mef4bfa8baf" y="168.04175"/>
      </g>
     </g>
     <g id="line2d_24">
      <g>
       <use style="fill:#212121;stroke:#212121;stroke-width:0.5;" x="113.292293398" xlink:href="#mfe4998aa38" y="23.14175"/>
      </g>
     </g>
    </g>
    <g id="xtick_9">
     <g id="line2d_25">
      <path clip-path="url(#pe16bd34ac1)" d="
M137.883 168.042
L137.883 23.1418" style="fill:none;stroke:#ffffff;stroke-dasharray:1.000000,3.000000;stroke-dashoffset:0.0;stroke-linejoin:miter;stroke-width:0.1;"/>
     </g>
     <g id="line2d_26">
      <g>
       <use style="fill:#212121;stroke:#212121;stroke-width:0.5;" x="137.882931293" xlink:href="#mef4bfa8baf" y="168.04175"/>
      </g>
     </g>
     <g id="line2d_27">
      <g>
       <use style="fill:#212121;stroke:#212121;stroke-width:0.5;" x="137.882931293" xlink:href="#mfe4998aa38" y="23.14175"/>
      </g>
     </g>
    </g>
    <g id="xtick_10">
     <g id="line2d_28">
      <path clip-path="url(#pe16bd34ac1)" d="
M187.064 168.042
L187.064 23.1418" style="fill:none;stroke:#ffffff;stroke-dasharray:1.000000,3.000000;stroke-dashoffset:0.0;stroke-linejoin:miter;stroke-width:0.1;"/>
     </g>
     <g id="line2d_29">
      <g>
       <use style="fill:#212121;stroke:#212121;stroke-width:0.5;" x="187.064207084" xlink:href="#mef4bfa8baf" y="168.04175"/>
      </g>
     </g>
     <g id="line2d_30">
      <g>
       <use style="fill:#212121;stroke:#212121;stroke-width:0.5;" x="187.064207084" xlink:href="#mfe4998aa38" y="23.14175"/>
      </g>
     </g>
    </g>
    <g id="xtick_11">
     <g id="line2d_31">
      <path clip-path="url(#pe16bd34ac1)" d="
M211.655 168.042
L211.655 23.1418" style="fill:none;stroke:#ffffff;stroke-dasharray:1.000000,3.000000;stroke-dashoffset:0.0;stroke-linejoin:miter;stroke-width:0.1;"/>
     </g>
     <g id="line2d_32">
      <g>
       <use style="fill:#212121;stroke:#212121;stroke-width:0.5;" x="211.654844979" xlink:href="#mef4bfa8baf" y="168.04175"/>
      </g>
     </g>
     <g id="line2d_33">
      <g>
       <use style="fill:#212121;stroke:#212121;stroke-width:0.5;" x="211.654844979" xlink:href="#mfe4998aa38" y="23.14175"/>
      </g>
     </g>
    </g>
    <g id="xtick_12">
     <g id="line2d_34">
      <path clip-path="url(#pe16bd34ac1)" d="
M236.245 168.042
L236.245 23.1418" style="fill:none;stroke:#ffffff;stroke-dasharray:1.000000,3.000000;stroke-dashoffset:0.0;stroke-linejoin:miter;stroke-width:0.1;"/>
     </g>
     <g id="line2d_35">
      <g>
       <use style="fill:#212121;stroke:#212121;stroke-width:0.5;" x="236.245482875" xlink:href="#mef4bfa8baf" y="168.04175"/>
      </g>
     </g>
     <g id="line2d_36">
      <g>
       <use style="fill:#212121;stroke:#212121;stroke-width:0.5;" x="236.245482875" xlink:href="#mfe4998aa38" y="23.14175"/>
      </g>
     </g>
    </g>
    <g id="xtick_13">
     <g id="line2d_37">
      <path clip-path="url(#pe16bd34ac1)" d="
M285.427 168.042
L285.427 23.1418" style="fill:none;stroke:#ffffff;stroke-dasharray:1.000000,3.000000;stroke-dashoffset:0.0;stroke-linejoin:miter;stroke-width:0.1;"/>
     </g>
     <g id="line2d_38">
      <g>
       <use style="fill:#212121;stroke:#212121;stroke-width:0.5;" x="285.426758666" xlink:href="#mef4bfa8baf" y="168.04175"/>
      </g>
     </g>
     <g id="line2d_39">
      <g>
       <use style="fill:#212121;stroke:#212121;stroke-width:0.5;" x="285.426758666" xlink:href="#mfe4998aa38" y="23.14175"/>
      </g>
     </g>
    </g>
    <g id="xtick_14">
     <g id="line2d_40">
      <path clip-path="url(#pe16bd34ac1)" d="
M310.017 168.042
L310.017 23.1418" style="fill:none;stroke:#ffffff;stroke-dasharray:1.000000,3.000000;stroke-dashoffset:0.0;stroke-linejoin:miter;stroke-width:0.1;"/>
     </g>
     <g id="line2d_41">
      <g>
       <use style="fill:#212121;stroke:#212121;stroke-width:0.5;" x="310.017396561" xlink:href="#mef4bfa8baf" y="168.04175"/>
      </g>
     </g>
     <g id="line2d_42">
      <g>
       <use style="fill:#212121;stroke:#212121;stroke-width:0.5;" x="310.017396561" xlink:href="#mfe4998aa38" y="23.14175"/>
      </g>
     </g>
    </g>
    <g id="xtick_15">
     <g id="line2d_43">
      <path clip-path="url(#pe16bd34ac1)" d="
M334.608 168.042
L334.608 23.1418" style="fill:none;stroke:#ffffff;stroke-dasharray:1.000000,3.000000;stroke-dashoffset:0.0;stroke-linejoin:miter;stroke-width:0.1;"/>
     </g>
     <g id="line2d_44">
      <g>
       <use style="fill:#212121;stroke:#212121;stroke-width:0.5;" x="334.608034457" xlink:href="#mef4bfa8baf" y="168.04175"/>
      </g>
     </g>
     <g id="line2d_45">
      <g>
       <use style="fill:#212121;stroke:#212121;stroke-width:0.5;" x="334.608034457" xlink:href="#mfe4998aa38" y="23.14175"/>
      </g>
     </g>
    </g>
    <g id="xtick_16">
     <g id="line2d_46">
      <path clip-path="url(#pe16bd34ac1)" d="
M383.789 168.042
L383.789 23.1418" style="fill:none;stroke:#ffffff;stroke-dasharray:1.000000,3.000000;stroke-dashoffset:0.0;stroke-linejoin:miter;stroke-width:0.1;"/>
     </g>
     <g id="line2d_47">
      <g>
       <use style="fill:#212121;stroke:#212121;stroke-width:0.5;" x="383.789310248" xlink:href="#mef4bfa8baf" y="168.04175"/>
      </g>
     </g>
     <g id="line2d_48">
      <g>
       <use style="fill:#212121;stroke:#212121;stroke-width:0.5;" x="383.789310248" xlink:href="#mfe4998aa38" y="23.14175"/>
      </g>
     </g>
    </g>
    <g id="xtick_17">
     <g id="line2d_49">
      <path clip-path="url(#pe16bd34ac1)" d="
M408.38 168.042
L408.38 23.1418" style="fill:none;stroke:#ffffff;stroke-dasharray:1.000000,3.000000;stroke-dashoffset:0.0;stroke-linejoin:miter;stroke-width:0.1;"/>
     </g>
     <g id="line2d_50">
      <g>
       <use style="fill:#212121;stroke:#212121;stroke-width:0.5;" x="408.379948143" xlink:href="#mef4bfa8baf" y="168.04175"/>
      </g>
     </g>
     <g id="line2d_51">
      <g>
       <use style="fill:#212121;stroke:#212121;stroke-width:0.5;" x="408.379948143" xlink:href="#mfe4998aa38" y="23.14175"/>
      </g>
     </g>
    </g>
    <g id="xtick_18">
     <g id="line2d_52">
      <path clip-path="url(#pe16bd34ac1)" d="
M432.971 168.042
L432.971 23.1418" style="fill:none;stroke:#ffffff;stroke-dasharray:1.000000,3.000000;stroke-dashoffset:0.0;stroke-linejoin:miter;stroke-width:0.1;"/>
     </g>
     <g id="line2d_53">
      <g>
       <use style="fill:#212121;stroke:#212121;stroke-width:0.5;" x="432.970586039" xlink:href="#mef4bfa8baf" y="168.04175"/>
      </g>
     </g>
     <g id="line2d_54">
      <g>
       <use style="fill:#212121;stroke:#212121;stroke-width:0.5;" x="432.970586039" xlink:href="#mfe4998aa38" y="23.14175"/>
      </g>
     </g>
    </g>
    <g id="xtick_19">
     <g id="line2d_55">
      <path clip-path="url(#pe16bd34ac1)" d="
M482.152 168.042
L482.152 23.1418" style="fill:none;stroke:#ffffff;stroke-dasharray:1.000000,3.000000;stroke-dashoffset:0.0;stroke-linejoin:miter;stroke-width:0.1;"/>
     </g>
     <g id="line2d_56">
      <g>
       <use style="fill:#212121;stroke:#212121;stroke-width:0.5;" x="482.15186183" xlink:href="#mef4bfa8baf" y="168.04175"/>
      </g>
     </g>
     <g id="line2d_57">
      <g>
       <use style="fill:#212121;stroke:#212121;stroke-width:0.5;" x="482.15186183" xlink:href="#mfe4998aa38" y="23.14175"/>
      </g>
     </g>
    </g>
    <g id="xtick_20">
     <g id="line2d_58">
      <path clip-path="url(#pe16bd34ac1)" d="
M506.742 168.042
L506.742 23.1418" style="fill:none;stroke:#ffffff;stroke-dasharray:1.000000,3.000000;stroke-dashoffset:0.0;stroke-linejoin:miter;stroke-width:0.1;"/>
     </g>
     <g id="line2d_59">
      <g>
       <use style="fill:#212121;stroke:#212121;stroke-width:0.5;" x="506.742499725" xlink:href="#mef4bfa8baf" y="168.04175"/>
      </g>
     </g>
     <g id="line2d_60">
      <g>
       <use style="fill:#212121;stroke:#212121;stroke-width:0.5;" x="506.742499725" xlink:href="#mfe4998aa38" y="23.14175"/>
      </g>
     </g>
    </g>
    <g id="xtick_21">
     <g id="line2d_61">
      <path clip-path="url(#pe16bd34ac1)" d="
M531.333 168.042
L531.333 23.1418" style="fill:none;stroke:#ffffff;stroke-dasharray:1.000000,3.000000;stroke-dashoffset:0.0;stroke-linejoin:miter;stroke-width:0.1;"/>
     </g>
     <g id="line2d_62">
      <g>
       <use style="fill:#212121;stroke:#212121;stroke-width:0.5;" x="531.333137621" xlink:href="#mef4bfa8baf" y="168.04175"/>
      </g>
     </g>
     <g id="line2d_63">
      <g>
       <use style="fill:#212121;stroke:#212121;stroke-width:0.5;" x="531.333137621" xlink:href="#mfe4998aa38" y="23.14175"/>
      </g>
     </g>
    </g>
    <g id="text_7">
     <!-- units -->
     <defs>
      <path d="
M54.8906 33.0156
L54.8906 0
L45.9062 0
L45.9062 32.7188
Q45.9062 40.4844 42.875 44.3281
Q39.8438 48.1875 33.7969 48.1875
Q26.5156 48.1875 22.3125 43.5469
Q18.1094 38.9219 18.1094 30.9062
L18.1094 0
L9.07812 0
L9.07812 54.6875
L18.1094 54.6875
L18.1094 46.1875
Q21.3438 51.125 25.7031 53.5625
Q30.0781 56 35.7969 56
Q45.2188 56 50.0469 50.1719
Q54.8906 44.3438 54.8906 33.0156" id="BitstreamVeraSans-Roman-6e"/>
      <path d="
M18.3125 70.2188
L18.3125 54.6875
L36.8125 54.6875
L36.8125 47.7031
L18.3125 47.7031
L18.3125 18.0156
Q18.3125 11.3281 20.1406 9.42188
Q21.9688 7.51562 27.5938 7.51562
L36.8125 7.51562
L36.8125 0
L27.5938 0
Q17.1875 0 13.2344 3.875
Q9.28125 7.76562 9.28125 18.0156
L9.28125 47.7031
L2.6875 47.7031
L2.6875 54.6875
L9.28125 54.6875
L9.28125 70.2188
z
" id="BitstreamVeraSans-Roman-74"/>
      <path d="
M8.5 21.5781
L8.5 54.6875
L17.4844 54.6875
L17.4844 21.9219
Q17.4844 14.1562 20.5 10.2656
Q23.5312 6.39062 29.5938 6.39062
Q36.8594 6.39062 41.0781 11.0312
Q45.3125 15.6719 45.3125 23.6875
L45.3125 54.6875
L54.2969 54.6875
L54.2969 0
L45.3125 0
L45.3125 8.40625
Q42.0469 3.42188 37.7188 1
Q33.4062 -1.42188 27.6875 -1.42188
Q18.2656 -1.42188 13.375 4.4375
Q8.5 10.2969 8.5 21.5781" id="BitstreamVeraSans-Roman-75"/>
      <path d="
M9.42188 54.6875
L18.4062 54.6875
L18.4062 0
L9.42188 0
z

M9.42188 75.9844
L18.4062 75.9844
L18.4062 64.5938
L9.42188 64.5938
z
" id="BitstreamVeraSans-Roman-69"/>
      <path d="
M44.2812 53.0781
L44.2812 44.5781
Q40.4844 46.5312 36.375 47.5
Q32.2812 48.4844 27.875 48.4844
Q21.1875 48.4844 17.8438 46.4375
Q14.5 44.3906 14.5 40.2812
Q14.5 37.1562 16.8906 35.375
Q19.2812 33.5938 26.5156 31.9844
L29.5938 31.2969
Q39.1562 29.25 43.1875 25.5156
Q47.2188 21.7812 47.2188 15.0938
Q47.2188 7.46875 41.1875 3.01562
Q35.1562 -1.42188 24.6094 -1.42188
Q20.2188 -1.42188 15.4531 -0.5625
Q10.6875 0.296875 5.42188 2
L5.42188 11.2812
Q10.4062 8.6875 15.2344 7.39062
Q20.0625 6.10938 24.8125 6.10938
Q31.1562 6.10938 34.5625 8.28125
Q37.9844 10.4531 37.9844 14.4062
Q37.9844 18.0625 35.5156 20.0156
Q33.0625 21.9688 24.7031 23.7812
L21.5781 24.5156
Q13.2344 26.2656 9.51562 29.9062
Q5.8125 33.5469 5.8125 39.8906
Q5.8125 47.6094 11.2812 51.7969
Q16.75 56 26.8125 56
Q31.7812 56 36.1719 55.2656
Q40.5781 54.5469 44.2812 53.0781" id="BitstreamVeraSans-Roman-73"/>
     </defs>
     <g transform="translate(293.611145272 199.838)scale(0.12 -0.12)">
      <use xlink:href="#BitstreamVeraSans-Roman-75"/>
      <use x="63.37890625" xlink:href="#BitstreamVeraSans-Roman-6e"/>
      <use x="126.7578125" xlink:href="#BitstreamVeraSans-Roman-69"/>
      <use x="154.541015625" xlink:href="#BitstreamVeraSans-Roman-74"/>
      <use x="193.75" xlink:href="#BitstreamVeraSans-Roman-73"/>
     </g>
    </g>
   </g>
   <g id="matplotlib.axis_2">
    <g id="ytick_1">
     <g id="line2d_64">
      <path clip-path="url(#pe16bd34ac1)" d="
M54.3731 165.255
L560.744 165.255" style="fill:none;stroke:#ffffff;stroke-dasharray:6.000000,6.000000;stroke-dashoffset:0.0;stroke-linejoin:miter;stroke-width:0.1;"/>
     </g>
     <g id="line2d_65">
      <defs>
       <path d="
M0 0
L-4 0" id="mee318359a3" style="stroke:#212121;stroke-width:0.5;"/>
      </defs>
      <g>
       <use style="fill:#212121;stroke:#212121;stroke-width:0.5;" x="54.373125" xlink:href="#mee318359a3" y="165.255211538"/>
      </g>
     </g>
     <g id="line2d_66">
      <defs>
       <path d="
M0 0
L4 0" id="m1c8b12de94" style="stroke:#212121;stroke-width:0.5;"/>
      </defs>
      <g>
       <use style="fill:#212121;stroke:#212121;stroke-width:0.5;" x="560.743540544" xlink:href="#m1c8b12de94" y="165.255211538"/>
      </g>
     </g>
     <g id="text_8">
      <!-- −1.0 -->
      <defs>
       <path d="
M10.5938 35.5
L73.1875 35.5
L73.1875 27.2031
L10.5938 27.2031
z
" id="BitstreamVeraSans-Roman-2212"/>
       <path d="
M10.6875 12.4062
L21 12.4062
L21 0
L10.6875 0
z
" id="BitstreamVeraSans-Roman-2e"/>
      </defs>
      <g style="fill:#212121;" transform="translate(23.81375 168.014586538)scale(0.1 -0.1)">
       <use xlink:href="#BitstreamVeraSans-Roman-2212"/>
       <use x="83.7890625" xlink:href="#BitstreamVeraSans-Roman-31"/>
       <use x="147.412109375" xlink:href="#BitstreamVeraSans-Roman-2e"/>
       <use x="179.19921875" xlink:href="#BitstreamVeraSans-Roman-30"/>
      </g>
     </g>
    </g>
    <g id="ytick_2">
     <g id="line2d_67">
      <path clip-path="url(#pe16bd34ac1)" d="
M54.3731 130.423
L560.744 130.423" style="fill:none;stroke:#ffffff;stroke-dasharray:6.000000,6.000000;stroke-dashoffset:0.0;stroke-linejoin:miter;stroke-width:0.1;"/>
     </g>
     <g id="line2d_68">
      <g>
       <use style="fill:#212121;stroke:#212121;stroke-width:0.5;" x="54.373125" xlink:href="#mee318359a3" y="130.423480769"/>
      </g>
     </g>
     <g id="line2d_69">
      <g>
       <use style="fill:#212121;stroke:#212121;stroke-width:0.5;" x="560.743540544" xlink:href="#m1c8b12de94" y="130.423480769"/>
      </g>
     </g>
     <g id="text_9">
      <!-- −0.5 -->
      <defs>
       <path d="
M10.7969 72.9062
L49.5156 72.9062
L49.5156 64.5938
L19.8281 64.5938
L19.8281 46.7344
Q21.9688 47.4688 24.1094 47.8281
Q26.2656 48.1875 28.4219 48.1875
Q40.625 48.1875 47.75 41.5
Q54.8906 34.8125 54.8906 23.3906
Q54.8906 11.625 47.5625 5.09375
Q40.2344 -1.42188 26.9062 -1.42188
Q22.3125 -1.42188 17.5469 -0.640625
Q12.7969 0.140625 7.71875 1.70312
L7.71875 11.625
Q12.1094 9.23438 16.7969 8.0625
Q21.4844 6.89062 26.7031 6.89062
Q35.1562 6.89062 40.0781 11.3281
Q45.0156 15.7656 45.0156 23.3906
Q45.0156 31 40.0781 35.4375
Q35.1562 39.8906 26.7031 39.8906
Q22.75 39.8906 18.8125 39.0156
Q14.8906 38.1406 10.7969 36.2812
z
" id="BitstreamVeraSans-Roman-35"/>
      </defs>
      <g style="fill:#212121;" transform="translate(24.023125 133.182855769)scale(0.1 -0.1)">
       <use xlink:href="#BitstreamVeraSans-Roman-2212"/>
       <use x="83.7890625" xlink:href="#BitstreamVeraSans-Roman-30"/>
       <use x="147.412109375" xlink:href="#BitstreamVeraSans-Roman-2e"/>
       <use x="179.19921875" xlink:href="#BitstreamVeraSans-Roman-35"/>
      </g>
     </g>
    </g>
    <g id="ytick_3">
     <g id="line2d_70">
      <path clip-path="url(#pe16bd34ac1)" d="
M54.3731 95.5917
L560.744 95.5917" style="fill:none;stroke:#ffffff;stroke-dasharray:6.000000,6.000000;stroke-dashoffset:0.0;stroke-linejoin:miter;stroke-width:0.1;"/>
     </g>
     <g id="line2d_71">
      <g>
       <use style="fill:#212121;stroke:#212121;stroke-width:0.5;" x="54.373125" xlink:href="#mee318359a3" y="95.59175"/>
      </g>
     </g>
     <g id="line2d_72">
      <g>
       <use style="fill:#212121;stroke:#212121;stroke-width:0.5;" x="560.743540544" xlink:href="#m1c8b12de94" y="95.59175"/>
      </g>
     </g>
     <g id="text_10">
      <!-- 0.0 -->
      <g style="fill:#212121;" transform="translate(31.7934375 98.351125)scale(0.1 -0.1)">
       <use xlink:href="#BitstreamVeraSans-Roman-30"/>
       <use x="63.623046875" xlink:href="#BitstreamVeraSans-Roman-2e"/>
       <use x="95.41015625" xlink:href="#BitstreamVeraSans-Roman-30"/>
      </g>
     </g>
    </g>
    <g id="ytick_4">
     <g id="line2d_73">
      <path clip-path="url(#pe16bd34ac1)" d="
M54.3731 60.76
L560.744 60.76" style="fill:none;stroke:#ffffff;stroke-dasharray:6.000000,6.000000;stroke-dashoffset:0.0;stroke-linejoin:miter;stroke-width:0.1;"/>
     </g>
     <g id="line2d_74">
      <g>
       <use style="fill:#212121;stroke:#212121;stroke-width:0.5;" x="54.373125" xlink:href="#mee318359a3" y="60.7600192308"/>
      </g>
     </g>
     <g id="line2d_75">
      <g>
       <use style="fill:#212121;stroke:#212121;stroke-width:0.5;" x="560.743540544" xlink:href="#m1c8b12de94" y="60.7600192308"/>
      </g>
     </g>
     <g id="text_11">
      <!-- 0.5 -->
      <g style="fill:#212121;" transform="translate(32.0028125 63.5193942308)scale(0.1 -0.1)">
       <use xlink:href="#BitstreamVeraSans-Roman-30"/>
       <use x="63.623046875" xlink:href="#BitstreamVeraSans-Roman-2e"/>
       <use x="95.41015625" xlink:href="#BitstreamVeraSans-Roman-35"/>
      </g>
     </g>
    </g>
    <g id="ytick_5">
     <g id="line2d_76">
      <path clip-path="url(#pe16bd34ac1)" d="
M54.3731 25.9283
L560.744 25.9283" style="fill:none;stroke:#ffffff;stroke-dasharray:6.000000,6.000000;stroke-dashoffset:0.0;stroke-linejoin:miter;stroke-width:0.1;"/>
     </g>
     <g id="line2d_77">
      <g>
       <use style="fill:#212121;stroke:#212121;stroke-width:0.5;" x="54.373125" xlink:href="#mee318359a3" y="25.9282884615"/>
      </g>
     </g>
     <g id="line2d_78">
      <g>
       <use style="fill:#212121;stroke:#212121;stroke-width:0.5;" x="560.743540544" xlink:href="#m1c8b12de94" y="25.9282884615"/>
      </g>
     </g>
     <g id="text_12">
      <!-- 1.0 -->
      <g style="fill:#212121;" transform="translate(32.2325 28.6876634615)scale(0.1 -0.1)">
       <use xlink:href="#BitstreamVeraSans-Roman-31"/>
       <use x="63.623046875" xlink:href="#BitstreamVeraSans-Roman-2e"/>
       <use x="95.41015625" xlink:href="#BitstreamVeraSans-Roman-30"/>
      </g>
     </g>
    </g>
    <g id="ytick_6">
     <g id="line2d_79">
      <path clip-path="url(#pe16bd34ac1)" d="
M54.3731 158.289
L560.744 158.289" style="fill:none;stroke:#ffffff;stroke-dasharray:1.000000,3.000000;stroke-dashoffset:0.0;stroke-linejoin:miter;stroke-width:0.1;"/>
     </g>
     <g id="line2d_80">
      <defs>
       <path d="
M0 0
L-2 0" id="m65f16a537c" style="stroke:#212121;stroke-width:0.5;"/>
      </defs>
      <g>
       <use style="fill:#212121;stroke:#212121;stroke-width:0.5;" x="54.373125" xlink:href="#m65f16a537c" y="158.288865385"/>
      </g>
     </g>
     <g id="line2d_81">
      <defs>
       <path d="
M0 0
L2 0" id="meb91aa0c45" style="stroke:#212121;stroke-width:0.5;"/>
      </defs>
      <g>
       <use style="fill:#212121;stroke:#212121;stroke-width:0.5;" x="560.743540544" xlink:href="#meb91aa0c45" y="158.288865385"/>
      </g>
     </g>
    </g>
    <g id="ytick_7">
     <g id="line2d_82">
      <path clip-path="url(#pe16bd34ac1)" d="
M54.3731 151.323
L560.744 151.323" style="fill:none;stroke:#ffffff;stroke-dasharray:1.000000,3.000000;stroke-dashoffset:0.0;stroke-linejoin:miter;stroke-width:0.1;"/>
     </g>
     <g id="line2d_83">
      <g>
       <use style="fill:#212121;stroke:#212121;stroke-width:0.5;" x="54.373125" xlink:href="#m65f16a537c" y="151.322519231"/>
      </g>
     </g>
     <g id="line2d_84">
      <g>
       <use style="fill:#212121;stroke:#212121;stroke-width:0.5;" x="560.743540544" xlink:href="#meb91aa0c45" y="151.322519231"/>
      </g>
     </g>
    </g>
    <g id="ytick_8">
     <g id="line2d_85">
      <path clip-path="url(#pe16bd34ac1)" d="
M54.3731 144.356
L560.744 144.356" style="fill:none;stroke:#ffffff;stroke-dasharray:1.000000,3.000000;stroke-dashoffset:0.0;stroke-linejoin:miter;stroke-width:0.1;"/>
     </g>
     <g id="line2d_86">
      <g>
       <use style="fill:#212121;stroke:#212121;stroke-width:0.5;" x="54.373125" xlink:href="#m65f16a537c" y="144.356173077"/>
      </g>
     </g>
     <g id="line2d_87">
      <g>
       <use style="fill:#212121;stroke:#212121;stroke-width:0.5;" x="560.743540544" xlink:href="#meb91aa0c45" y="144.356173077"/>
      </g>
     </g>
    </g>
    <g id="ytick_9">
     <g id="line2d_88">
      <path clip-path="url(#pe16bd34ac1)" d="
M54.3731 137.39
L560.744 137.39" style="fill:none;stroke:#ffffff;stroke-dasharray:1.000000,3.000000;stroke-dashoffset:0.0;stroke-linejoin:miter;stroke-width:0.1;"/>
     </g>
     <g id="line2d_89">
      <g>
       <use style="fill:#212121;stroke:#212121;stroke-width:0.5;" x="54.373125" xlink:href="#m65f16a537c" y="137.389826923"/>
      </g>
     </g>
     <g id="line2d_90">
      <g>
       <use style="fill:#212121;stroke:#212121;stroke-width:0.5;" x="560.743540544" xlink:href="#meb91aa0c45" y="137.389826923"/>
      </g>
     </g>
    </g>
    <g id="ytick_10">
     <g id="line2d_91">
      <path clip-path="url(#pe16bd34ac1)" d="
M54.3731 130.423
L560.744 130.423" style="fill:none;stroke:#ffffff;stroke-dasharray:1.000000,3.000000;stroke-dashoffset:0.0;stroke-linejoin:miter;stroke-width:0.1;"/>
     </g>
     <g id="line2d_92">
      <g>
       <use style="fill:#212121;stroke:#212121;stroke-width:0.5;" x="54.373125" xlink:href="#m65f16a537c" y="130.423480769"/>
      </g>
     </g>
     <g id="line2d_93">
      <g>
       <use style="fill:#212121;stroke:#212121;stroke-width:0.5;" x="560.743540544" xlink:href="#meb91aa0c45" y="130.423480769"/>
      </g>
     </g>
    </g>
    <g id="ytick_11">
     <g id="line2d_94">
      <path clip-path="url(#pe16bd34ac1)" d="
M54.3731 123.457
L560.744 123.457" style="fill:none;stroke:#ffffff;stroke-dasharray:1.000000,3.000000;stroke-dashoffset:0.0;stroke-linejoin:miter;stroke-width:0.1;"/>
     </g>
     <g id="line2d_95">
      <g>
       <use style="fill:#212121;stroke:#212121;stroke-width:0.5;" x="54.373125" xlink:href="#m65f16a537c" y="123.457134615"/>
      </g>
     </g>
     <g id="line2d_96">
      <g>
       <use style="fill:#212121;stroke:#212121;stroke-width:0.5;" x="560.743540544" xlink:href="#meb91aa0c45" y="123.457134615"/>
      </g>
     </g>
    </g>
    <g id="ytick_12">
     <g id="line2d_97">
      <path clip-path="url(#pe16bd34ac1)" d="
M54.3731 116.491
L560.744 116.491" style="fill:none;stroke:#ffffff;stroke-dasharray:1.000000,3.000000;stroke-dashoffset:0.0;stroke-linejoin:miter;stroke-width:0.1;"/>
     </g>
     <g id="line2d_98">
      <g>
       <use style="fill:#212121;stroke:#212121;stroke-width:0.5;" x="54.373125" xlink:href="#m65f16a537c" y="116.490788462"/>
      </g>
     </g>
     <g id="line2d_99">
      <g>
       <use style="fill:#212121;stroke:#212121;stroke-width:0.5;" x="560.743540544" xlink:href="#meb91aa0c45" y="116.490788462"/>
      </g>
     </g>
    </g>
    <g id="ytick_13">
     <g id="line2d_100">
      <path clip-path="url(#pe16bd34ac1)" d="
M54.3731 109.524
L560.744 109.524" style="fill:none;stroke:#ffffff;stroke-dasharray:1.000000,3.000000;stroke-dashoffset:0.0;stroke-linejoin:miter;stroke-width:0.1;"/>
     </g>
     <g id="line2d_101">
      <g>
       <use style="fill:#212121;stroke:#212121;stroke-width:0.5;" x="54.373125" xlink:href="#m65f16a537c" y="109.524442308"/>
      </g>
     </g>
     <g id="line2d_102">
      <g>
       <use style="fill:#212121;stroke:#212121;stroke-width:0.5;" x="560.743540544" xlink:href="#meb91aa0c45" y="109.524442308"/>
      </g>
     </g>
    </g>
    <g id="ytick_14">
     <g id="line2d_103">
      <path clip-path="url(#pe16bd34ac1)" d="
M54.3731 102.558
L560.744 102.558" style="fill:none;stroke:#ffffff;stroke-dasharray:1.000000,3.000000;stroke-dashoffset:0.0;stroke-linejoin:miter;stroke-width:0.1;"/>
     </g>
     <g id="line2d_104">
      <g>
       <use style="fill:#212121;stroke:#212121;stroke-width:0.5;" x="54.373125" xlink:href="#m65f16a537c" y="102.558096154"/>
      </g>
     </g>
     <g id="line2d_105">
      <g>
       <use style="fill:#212121;stroke:#212121;stroke-width:0.5;" x="560.743540544" xlink:href="#meb91aa0c45" y="102.558096154"/>
      </g>
     </g>
    </g>
    <g id="ytick_15">
     <g id="line2d_106">
      <path clip-path="url(#pe16bd34ac1)" d="
M54.3731 95.5918
L560.744 95.5918" style="fill:none;stroke:#ffffff;stroke-dasharray:1.000000,3.000000;stroke-dashoffset:0.0;stroke-linejoin:miter;stroke-width:0.1;"/>
     </g>
     <g id="line2d_107">
      <g>
       <use style="fill:#212121;stroke:#212121;stroke-width:0.5;" x="54.373125" xlink:href="#m65f16a537c" y="95.59175"/>
      </g>
     </g>
     <g id="line2d_108">
      <g>
       <use style="fill:#212121;stroke:#212121;stroke-width:0.5;" x="560.743540544" xlink:href="#meb91aa0c45" y="95.59175"/>
      </g>
     </g>
    </g>
    <g id="ytick_16">
     <g id="line2d_109">
      <path clip-path="url(#pe16bd34ac1)" d="
M54.3731 88.6254
L560.744 88.6254" style="fill:none;stroke:#ffffff;stroke-dasharray:1.000000,3.000000;stroke-dashoffset:0.0;stroke-linejoin:miter;stroke-width:0.1;"/>
     </g>
     <g id="line2d_110">
      <g>
       <use style="fill:#212121;stroke:#212121;stroke-width:0.5;" x="54.373125" xlink:href="#m65f16a537c" y="88.6254038462"/>
      </g>
     </g>
     <g id="line2d_111">
      <g>
       <use style="fill:#212121;stroke:#212121;stroke-width:0.5;" x="560.743540544" xlink:href="#meb91aa0c45" y="88.6254038462"/>
      </g>
     </g>
    </g>
    <g id="ytick_17">
     <g id="line2d_112">
      <path clip-path="url(#pe16bd34ac1)" d="
M54.3731 81.6591
L560.744 81.6591" style="fill:none;stroke:#ffffff;stroke-dasharray:1.000000,3.000000;stroke-dashoffset:0.0;stroke-linejoin:miter;stroke-width:0.1;"/>
     </g>
     <g id="line2d_113">
      <g>
       <use style="fill:#212121;stroke:#212121;stroke-width:0.5;" x="54.373125" xlink:href="#m65f16a537c" y="81.6590576923"/>
      </g>
     </g>
     <g id="line2d_114">
      <g>
       <use style="fill:#212121;stroke:#212121;stroke-width:0.5;" x="560.743540544" xlink:href="#meb91aa0c45" y="81.6590576923"/>
      </g>
     </g>
    </g>
    <g id="ytick_18">
     <g id="line2d_115">
      <path clip-path="url(#pe16bd34ac1)" d="
M54.3731 74.6927
L560.744 74.6927" style="fill:none;stroke:#ffffff;stroke-dasharray:1.000000,3.000000;stroke-dashoffset:0.0;stroke-linejoin:miter;stroke-width:0.1;"/>
     </g>
     <g id="line2d_116">
      <g>
       <use style="fill:#212121;stroke:#212121;stroke-width:0.5;" x="54.373125" xlink:href="#m65f16a537c" y="74.6927115385"/>
      </g>
     </g>
     <g id="line2d_117">
      <g>
       <use style="fill:#212121;stroke:#212121;stroke-width:0.5;" x="560.743540544" xlink:href="#meb91aa0c45" y="74.6927115385"/>
      </g>
     </g>
    </g>
    <g id="ytick_19">
     <g id="line2d_118">
      <path clip-path="url(#pe16bd34ac1)" d="
M54.3731 67.7264
L560.744 67.7264" style="fill:none;stroke:#ffffff;stroke-dasharray:1.000000,3.000000;stroke-dashoffset:0.0;stroke-linejoin:miter;stroke-width:0.1;"/>
     </g>
     <g id="line2d_119">
      <g>
       <use style="fill:#212121;stroke:#212121;stroke-width:0.5;" x="54.373125" xlink:href="#m65f16a537c" y="67.7263653846"/>
      </g>
     </g>
     <g id="line2d_120">
      <g>
       <use style="fill:#212121;stroke:#212121;stroke-width:0.5;" x="560.743540544" xlink:href="#meb91aa0c45" y="67.7263653846"/>
      </g>
     </g>
    </g>
    <g id="ytick_20">
     <g id="line2d_121">
      <path clip-path="url(#pe16bd34ac1)" d="
M54.3731 60.76
L560.744 60.76" style="fill:none;stroke:#ffffff;stroke-dasharray:1.000000,3.000000;stroke-dashoffset:0.0;stroke-linejoin:miter;stroke-width:0.1;"/>
     </g>
     <g id="line2d_122">
      <g>
       <use style="fill:#212121;stroke:#212121;stroke-width:0.5;" x="54.373125" xlink:href="#m65f16a537c" y="60.7600192308"/>
      </g>
     </g>
     <g id="line2d_123">
      <g>
       <use style="fill:#212121;stroke:#212121;stroke-width:0.5;" x="560.743540544" xlink:href="#meb91aa0c45" y="60.7600192308"/>
      </g>
     </g>
    </g>
    <g id="ytick_21">
     <g id="line2d_124">
      <path clip-path="url(#pe16bd34ac1)" d="
M54.3731 53.7937
L560.744 53.7937" style="fill:none;stroke:#ffffff;stroke-dasharray:1.000000,3.000000;stroke-dashoffset:0.0;stroke-linejoin:miter;stroke-width:0.1;"/>
     </g>
     <g id="line2d_125">
      <g>
       <use style="fill:#212121;stroke:#212121;stroke-width:0.5;" x="54.373125" xlink:href="#m65f16a537c" y="53.7936730769"/>
      </g>
     </g>
     <g id="line2d_126">
      <g>
       <use style="fill:#212121;stroke:#212121;stroke-width:0.5;" x="560.743540544" xlink:href="#meb91aa0c45" y="53.7936730769"/>
      </g>
     </g>
    </g>
    <g id="ytick_22">
     <g id="line2d_127">
      <path clip-path="url(#pe16bd34ac1)" d="
M54.3731 46.8273
L560.744 46.8273" style="fill:none;stroke:#ffffff;stroke-dasharray:1.000000,3.000000;stroke-dashoffset:0.0;stroke-linejoin:miter;stroke-width:0.1;"/>
     </g>
     <g id="line2d_128">
      <g>
       <use style="fill:#212121;stroke:#212121;stroke-width:0.5;" x="54.373125" xlink:href="#m65f16a537c" y="46.8273269231"/>
      </g>
     </g>
     <g id="line2d_129">
      <g>
       <use style="fill:#212121;stroke:#212121;stroke-width:0.5;" x="560.743540544" xlink:href="#meb91aa0c45" y="46.8273269231"/>
      </g>
     </g>
    </g>
    <g id="ytick_23">
     <g id="line2d_130">
      <path clip-path="url(#pe16bd34ac1)" d="
M54.3731 39.861
L560.744 39.861" style="fill:none;stroke:#ffffff;stroke-dasharray:1.000000,3.000000;stroke-dashoffset:0.0;stroke-linejoin:miter;stroke-width:0.1;"/>
     </g>
     <g id="line2d_131">
      <g>
       <use style="fill:#212121;stroke:#212121;stroke-width:0.5;" x="54.373125" xlink:href="#m65f16a537c" y="39.8609807692"/>
      </g>
     </g>
     <g id="line2d_132">
      <g>
       <use style="fill:#212121;stroke:#212121;stroke-width:0.5;" x="560.743540544" xlink:href="#meb91aa0c45" y="39.8609807692"/>
      </g>
     </g>
    </g>
    <g id="ytick_24">
     <g id="line2d_133">
      <path clip-path="url(#pe16bd34ac1)" d="
M54.3731 32.8946
L560.744 32.8946" style="fill:none;stroke:#ffffff;stroke-dasharray:1.000000,3.000000;stroke-dashoffset:0.0;stroke-linejoin:miter;stroke-width:0.1;"/>
     </g>
     <g id="line2d_134">
      <g>
       <use style="fill:#212121;stroke:#212121;stroke-width:0.5;" x="54.373125" xlink:href="#m65f16a537c" y="32.8946346154"/>
      </g>
     </g>
     <g id="line2d_135">
      <g>
       <use style="fill:#212121;stroke:#212121;stroke-width:0.5;" x="560.743540544" xlink:href="#meb91aa0c45" y="32.8946346154"/>
      </g>
     </g>
    </g>
    <g id="text_13">
     <!-- arbs -->
     <defs>
      <path d="
M41.1094 46.2969
Q39.5938 47.1719 37.8125 47.5781
Q36.0312 48 33.8906 48
Q26.2656 48 22.1875 43.0469
Q18.1094 38.0938 18.1094 28.8125
L18.1094 0
L9.07812 0
L9.07812 54.6875
L18.1094 54.6875
L18.1094 46.1875
Q20.9531 51.1719 25.4844 53.5781
Q30.0312 56 36.5312 56
Q37.4531 56 38.5781 55.875
Q39.7031 55.7656 41.0625 55.5156
z
" id="BitstreamVeraSans-Roman-72"/>
      <path d="
M34.2812 27.4844
Q23.3906 27.4844 19.1875 25
Q14.9844 22.5156 14.9844 16.5
Q14.9844 11.7188 18.1406 8.90625
Q21.2969 6.10938 26.7031 6.10938
Q34.1875 6.10938 38.7031 11.4062
Q43.2188 16.7031 43.2188 25.4844
L43.2188 27.4844
z

M52.2031 31.2031
L52.2031 0
L43.2188 0
L43.2188 8.29688
Q40.1406 3.32812 35.5469 0.953125
Q30.9531 -1.42188 24.3125 -1.42188
Q15.9219 -1.42188 10.9531 3.29688
Q6 8.01562 6 15.9219
Q6 25.1406 12.1719 29.8281
Q18.3594 34.5156 30.6094 34.5156
L43.2188 34.5156
L43.2188 35.4062
Q43.2188 41.6094 39.1406 45
Q35.0625 48.3906 27.6875 48.3906
Q23 48.3906 18.5469 47.2656
Q14.1094 46.1406 10.0156 43.8906
L10.0156 52.2031
Q14.9375 54.1094 19.5781 55.0469
Q24.2188 56 28.6094 56
Q40.4844 56 46.3438 49.8438
Q52.2031 43.7031 52.2031 31.2031" id="BitstreamVeraSans-Roman-61"/>
      <path d="
M48.6875 27.2969
Q48.6875 37.2031 44.6094 42.8438
Q40.5312 48.4844 33.4062 48.4844
Q26.2656 48.4844 22.1875 42.8438
Q18.1094 37.2031 18.1094 27.2969
Q18.1094 17.3906 22.1875 11.75
Q26.2656 6.10938 33.4062 6.10938
Q40.5312 6.10938 44.6094 11.75
Q48.6875 17.3906 48.6875 27.2969
M18.1094 46.3906
Q20.9531 51.2656 25.2656 53.625
Q29.5938 56 35.5938 56
Q45.5625 56 51.7812 48.0938
Q58.0156 40.1875 58.0156 27.2969
Q58.0156 14.4062 51.7812 6.48438
Q45.5625 -1.42188 35.5938 -1.42188
Q29.5938 -1.42188 25.2656 0.953125
Q20.9531 3.32812 18.1094 8.20312
L18.1094 0
L9.07812 0
L9.07812 75.9844
L18.1094 75.9844
z
" id="BitstreamVeraSans-Roman-62"/>
     </defs>
     <g transform="translate(16.318125 108.017375)rotate(-90.0)scale(0.12 -0.12)">
      <use xlink:href="#BitstreamVeraSans-Roman-61"/>
      <use x="61.279296875" xlink:href="#BitstreamVeraSans-Roman-72"/>
      <use x="102.392578125" xlink:href="#BitstreamVeraSans-Roman-62"/>
      <use x="165.869140625" xlink:href="#BitstreamVeraSans-Roman-73"/>
     </g>
    </g>
   </g>
   <g id="line2d_136">
    <path clip-path="url(#pe16bd34ac1)" d="
M64.111 95.5917
L69.0291 88.637
L73.9473 81.7518
L78.8654 75.0048
L83.7835 68.4635
L88.7017 62.1933
L93.6198 56.2568
L98.5379 50.7133
L103.456 45.6182
L108.374 41.0225
L113.292 36.972
L118.21 33.5072
L123.129 30.6627
L128.047 28.467
L132.965 26.9419
L137.883 26.1028
L142.801 25.958
L147.719 26.5089
L152.637 27.7502
L157.555 29.6692
L162.474 32.2469
L167.392 35.4576
L172.31 39.2691
L177.228 43.6433
L182.146 48.5366
L187.064 53.9001
L191.982 59.6801
L196.9 65.819
L201.819 72.2553
L206.737 78.9248
L211.655 85.7608
L216.573 92.6951
L221.491 99.6583
L226.409 106.581
L231.327 113.394
L236.245 120.029
L241.164 126.419
L246.082 132.502
L251 138.216
L255.918 143.504
L260.836 148.313
L265.754 152.596
L270.672 156.309
L275.591 159.415
L280.509 161.884
L285.427 163.69
L290.345 164.816
L295.263 165.25
L300.181 164.988
L305.099 164.033
L310.017 162.394
L314.936 160.087
L319.854 157.136
L324.772 153.57
L329.69 149.425
L334.608 144.742
L339.526 139.568
L344.444 133.954
L349.362 127.958
L354.281 121.637
L359.199 115.057
L364.117 108.282
L369.035 101.38
L373.953 94.4204
L378.871 87.4725
L383.789 80.6057
L388.707 73.8887
L393.626 67.3885
L398.544 61.1701
L403.462 55.2956
L408.38 49.8238
L413.298 44.8092
L418.216 40.3021
L423.134 36.3474
L428.052 32.9846
L432.971 30.2474
L437.889 28.1631
L442.807 26.7525
L447.725 26.0298
L452.643 26.002
L457.561 26.6696
L462.479 28.0259
L467.397 30.0572
L472.316 32.7433
L477.234 36.0574
L482.152 39.9664
L487.07 44.4311
L491.988 49.407
L496.906 54.8444
L501.824 60.6889
L506.742 66.8821
L511.661 73.3623
L516.579 80.0645
L521.497 86.9218
L526.415 93.8658
L531.333 100.827
L536.251 107.736
L541.169 114.524
L546.088 121.122
L551.006 127.465" style="fill:none;stroke:#e24a33;stroke-linecap:square;stroke-linejoin:miter;stroke-width:2.0;"/>
   </g>
   <g id="line2d_137">
    <path clip-path="url(#pe16bd34ac1)" d="
M64.111 46.3322
L69.0291 41.6606
L73.9473 37.5278
L78.8654 33.9752
L83.7835 31.0382
L88.7017 28.7462
L93.6198 27.1221
L98.5379 26.1822
L103.456 25.9357
L108.374 26.3853
L113.292 27.5263
L118.21 29.3474
L123.129 31.8304
L128.047 34.9505
L132.965 38.6765
L137.883 42.9712
L142.801 47.7916
L147.719 53.0896
L152.637 58.8124
L157.555 64.9026
L162.474 71.2994
L167.392 77.939
L172.31 84.7549
L177.228 91.6791
L182.146 98.6424
L187.064 105.575
L191.982 112.408
L196.9 119.073
L201.819 125.504
L206.737 131.635
L211.655 137.407
L216.573 142.76
L221.491 147.643
L226.409 152.005
L231.327 155.804
L236.245 159.001
L241.164 161.564
L246.082 163.468
L251 164.694
L255.918 165.23
L260.836 165.07
L265.754 164.215
L270.672 162.675
L275.591 160.465
L280.509 157.606
L285.427 154.128
L290.345 150.065
L295.263 145.458
L300.181 140.352
L305.099 134.799
L310.017 128.855
L314.936 122.578
L319.854 116.031
L324.772 109.281
L329.69 102.393
L334.608 95.4376
L339.526 88.4836
L344.444 81.6007
L349.362 74.8576
L354.281 68.3216
L359.199 62.0581
L364.117 56.1297
L369.035 50.5955
L373.953 45.511
L378.871 40.9268
L383.789 36.8888
L388.707 33.4374
L393.626 30.607
L398.544 28.4259
L403.462 26.9159
L408.38 26.0921
L413.298 25.9627
L418.216 26.529
L423.134 27.7853
L428.052 29.7192
L432.971 32.3112
L437.889 35.5356
L442.807 39.36
L447.725 43.7462
L452.643 48.6504
L457.561 54.0237
L462.479 59.8123
L467.397 65.9584
L472.316 72.4006
L477.234 79.0745
L482.152 85.9135
L487.07 92.8491
L491.988 99.8122
L496.906 106.733
L501.824 113.543
L506.742 120.173
L511.661 126.557
L516.579 132.633
L521.497 138.338
L526.415 143.616
L531.333 148.414
L536.251 152.684
L541.169 156.384
L546.088 159.477
L551.006 161.931" style="fill:none;stroke:#348abd;stroke-linecap:square;stroke-linejoin:miter;stroke-width:2.0;"/>
   </g>
   <g id="line2d_138">
    <path clip-path="url(#pe16bd34ac1)" d="
M64.111 25.9283
L69.0291 26.2763
L73.9473 27.3169
L78.8654 29.0397
L83.7835 31.4275
L88.7017 34.4563
L93.6198 38.096
L98.5379 42.3102
L103.456 47.0567
L108.374 52.2882
L113.292 57.9524
L118.21 63.9927
L123.129 70.3487
L128.047 76.9569
L132.965 83.7513
L137.883 90.664
L142.801 97.6259
L147.719 104.568
L152.637 111.419
L157.555 118.113
L162.474 124.582
L167.392 130.761
L172.31 136.589
L177.228 142.007
L182.146 146.961
L187.064 151.402
L191.982 155.286
L196.9 158.573
L201.819 161.23
L206.737 163.232
L211.655 164.558
L216.573 165.195
L221.491 165.136
L226.409 164.383
L231.327 162.942
L236.245 160.829
L241.164 158.063
L246.082 154.673
L251 150.693
L255.918 146.163
L260.836 141.127
L265.754 135.636
L270.672 129.745
L275.591 123.513
L280.509 117.002
L285.427 110.277
L290.345 103.405
L295.263 96.4548
L300.181 89.4963
L305.099 82.5987
L310.017 75.8309
L314.936 69.2605
L319.854 62.9533
L324.772 56.9721
L329.69 51.3768
L334.608 46.2234
L339.526 41.5631
L344.444 37.4428
L349.362 33.9034
L354.281 30.9804
L359.199 28.703
L364.117 27.0939
L369.035 26.1692
L373.953 25.9381
L378.871 26.4031
L383.789 27.5593
L388.707 29.3953
L393.626 31.8927
L398.544 35.0265
L403.462 38.7655
L408.38 43.0723
L413.298 47.9039
L418.216 53.2119
L423.134 58.9434
L428.052 65.041
L432.971 71.4439
L437.889 78.0881
L442.807 84.9072
L447.725 91.833
L452.643 98.7964
L457.561 105.728
L462.479 112.558
L467.397 119.218
L472.316 125.643
L477.234 131.767
L482.152 137.53
L487.07 142.874
L491.988 147.745
L496.906 152.095
L501.824 155.881
L506.742 159.064
L511.661 161.613
L516.579 163.503
L521.497 164.714
L526.415 165.234
L531.333 165.058
L536.251 164.189
L541.169 162.633
L546.088 160.408
L551.006 157.536" style="fill:none;stroke:#988ed5;stroke-linecap:square;stroke-linejoin:miter;stroke-width:2.0;"/>
   </g>
   <g id="line2d_139">
    <path clip-path="url(#pe16bd34ac1)" d="
M64.111 46.3322
L69.0291 51.4961
L73.9473 57.1005
L78.8654 63.0895
L83.7835 69.4033
L88.7017 75.9787
L93.6198 82.7501
L98.5379 89.6498
L103.456 96.6089
L108.374 103.558
L113.292 110.427
L118.21 117.148
L123.129 123.654
L128.047 129.879
L132.965 135.762
L137.883 141.243
L142.801 146.269
L147.719 150.787
L152.637 154.755
L157.555 158.131
L162.474 160.882
L167.392 162.981
L172.31 164.407
L177.228 165.145
L182.146 165.188
L187.064 164.536
L191.982 163.195
L196.9 161.178
L201.819 158.507
L206.737 155.206
L211.655 151.31
L216.573 146.857
L221.491 141.892
L226.409 136.464
L231.327 130.628
L236.245 124.442
L241.164 117.967
L246.082 111.269
L251 104.415
L255.918 97.4718
L260.836 90.5102
L265.754 83.5994
L270.672 76.8084
L275.591 70.205
L280.509 63.8554
L285.427 57.8228
L290.345 52.1676
L295.263 46.9463
L300.181 42.211
L305.099 38.0091
L310.017 34.3826
L314.936 31.3676
L319.854 28.9943
L324.772 27.2865
L329.69 26.2611
L334.608 25.9285
L339.526 26.2919
L344.444 27.3477
L349.362 29.0854
L354.281 31.4876
L359.199 34.5304
L364.117 38.1832
L369.035 42.4096
L373.953 47.1675
L378.871 52.4091
L383.789 58.0822
L388.707 64.1301
L393.626 70.4924
L398.544 77.1054
L403.462 83.9032
L408.38 90.8177
L413.298 97.78
L418.216 104.72
L423.134 111.57
L428.052 118.259
L432.971 124.722
L437.889 130.894
L442.807 136.713
L447.725 142.122
L452.643 147.065
L457.561 151.494
L462.479 155.365
L467.397 158.638
L472.316 161.282
L477.234 163.269
L482.152 164.58
L487.07 165.201
L491.988 165.127
L496.906 164.359
L501.824 162.903
L506.742 160.774
L511.661 157.995
L516.579 154.592
L521.497 150.599
L526.415 146.057
L531.333 141.01
L536.251 135.51
L541.169 129.611
L546.088 123.372
L551.006 116.855" style="fill:none;stroke:#777777;stroke-linecap:square;stroke-linejoin:miter;stroke-width:2.0;"/>
   </g>
   <g id="line2d_140">
    <path clip-path="url(#pe16bd34ac1)" d="
M64.111 95.5917
L69.0291 102.546
L73.9473 109.432
L78.8654 116.179
L83.7835 122.72
L88.7017 128.99
L93.6198 134.927
L98.5379 140.47
L103.456 145.565
L108.374 150.161
L113.292 154.212
L118.21 157.676
L123.129 160.521
L128.047 162.717
L132.965 164.242
L137.883 165.081
L142.801 165.226
L147.719 164.675
L152.637 163.433
L157.555 161.514
L162.474 158.937
L167.392 155.726
L172.31 151.914
L177.228 147.54
L182.146 142.647
L187.064 137.283
L191.982 131.503
L196.9 125.365
L201.819 118.928
L206.737 112.259
L211.655 105.423
L216.573 98.4884
L221.491 91.5252
L226.409 84.6026
L231.327 77.7899
L236.245 71.155
L241.164 64.7642
L246.082 58.6815
L251 52.9676
L255.918 47.6796
L260.836 42.8703
L265.754 38.5877
L270.672 34.8748
L275.591 31.7685
L280.509 29.2999
L285.427 27.4936
L290.345 26.3678
L295.263 25.9336
L300.181 26.1955
L305.099 27.1507
L310.017 28.7898
L314.936 31.0963
L319.854 34.0472
L324.772 37.6131
L329.69 41.7583
L334.608 46.4414
L339.526 51.6155
L344.444 57.2291
L349.362 63.226
L354.281 69.5462
L359.199 76.1267
L364.117 82.9017
L369.035 89.8035
L373.953 96.7631
L378.871 103.711
L383.789 110.578
L388.707 117.295
L393.626 123.795
L398.544 130.013
L403.462 135.888
L408.38 141.36
L413.298 146.374
L418.216 150.881
L423.134 154.836
L428.052 158.199
L432.971 160.936
L437.889 163.02
L442.807 164.431
L447.725 165.154
L452.643 165.181
L457.561 164.514
L462.479 163.158
L467.397 161.126
L472.316 158.44
L477.234 155.126
L482.152 151.217
L487.07 146.752
L491.988 141.776
L496.906 136.339
L501.824 130.495
L506.742 124.301
L511.661 117.821
L516.579 111.119
L521.497 104.262
L526.415 97.3177
L531.333 90.3565
L536.251 83.4475
L541.169 76.66
L546.088 70.0615
L551.006 63.7182" style="fill:none;stroke:#fbc15e;stroke-linecap:square;stroke-linejoin:miter;stroke-width:2.0;"/>
   </g>
   <g id="line2d_141">
    <path clip-path="url(#pe16bd34ac1)" d="
M64.111 144.851
L69.0291 149.523
L73.9473 153.656
L78.8654 157.208
L83.7835 160.145
L88.7017 162.437
L93.6198 164.061
L98.5379 165.001
L103.456 165.248
L108.374 164.798
L113.292 163.657
L118.21 161.836
L123.129 159.353
L128.047 156.233
L132.965 152.507
L137.883 148.212
L142.801 143.392
L147.719 138.094
L152.637 132.371
L157.555 126.281
L162.474 119.884
L167.392 113.245
L172.31 106.429
L177.228 99.5044
L182.146 92.5411
L187.064 85.6083
L191.982 78.7752
L196.9 72.1101
L201.819 65.6797
L206.737 59.5481
L211.655 53.7767
L216.573 48.4231
L221.491 43.5408
L226.409 39.1785
L231.327 35.3799
L236.245 32.1829
L241.164 29.6195
L246.082 27.7153
L251 26.4893
L255.918 25.9537
L260.836 26.1139
L265.754 26.9683
L270.672 28.5084
L275.591 30.7187
L280.509 33.5772
L285.427 37.0554
L290.345 41.1184
L295.263 45.7258
L300.181 50.8313
L305.099 56.3841
L310.017 62.3287
L314.936 68.6056
L319.854 75.1521
L324.772 81.9029
L329.69 88.7904
L334.608 95.7459
L339.526 102.7
L344.444 109.583
L349.362 116.326
L354.281 122.862
L359.199 129.125
L364.117 135.054
L369.035 140.588
L373.953 145.673
L378.871 150.257
L383.789 154.295
L388.707 157.746
L393.626 160.577
L398.544 162.758
L403.462 164.268
L408.38 165.091
L413.298 165.221
L418.216 164.655
L423.134 163.398
L428.052 161.464
L432.971 158.872
L437.889 155.648
L442.807 151.824
L447.725 147.437
L452.643 142.533
L457.561 137.16
L462.479 131.371
L467.397 125.225
L472.316 118.783
L477.234 112.109
L482.152 105.27
L487.07 98.3344
L491.988 91.3713
L496.906 84.4504
L501.824 77.6409
L506.742 71.0107
L511.661 64.6261
L516.579 58.5509
L521.497 52.8458
L526.415 47.5678
L531.333 42.7696
L536.251 38.4993
L541.169 34.7993
L546.088 31.7068
L551.006 29.2526" style="fill:none;stroke:#8eba42;stroke-linecap:square;stroke-linejoin:miter;stroke-width:2.0;"/>
   </g>
   <g id="line2d_142">
    <path clip-path="url(#pe16bd34ac1)" d="
M64.111 165.255
L69.0291 164.907
L73.9473 163.867
L78.8654 162.144
L83.7835 159.756
L88.7017 156.727
L93.6198 153.087
L98.5379 148.873
L103.456 144.127
L108.374 138.895
L113.292 133.231
L118.21 127.191
L123.129 120.835
L128.047 114.227
L132.965 107.432
L137.883 100.52
L142.801 93.5576
L147.719 86.616
L152.637 79.7641
L157.555 73.0703
L162.474 66.6015
L167.392 60.4224
L172.31 54.5947
L177.228 49.1767
L182.146 44.2224
L187.064 39.7813
L191.982 35.8979
L196.9 32.611
L201.819 29.9533
L206.737 27.9514
L211.655 26.6254
L216.573 25.9885
L221.491 26.0471
L226.409 26.8005
L231.327 28.2412
L236.245 30.3549
L241.164 33.1205
L246.082 36.5102
L251 40.4902
L255.918 45.0208
L260.836 50.0567
L265.754 55.5475
L270.672 61.4385
L275.591 67.6707
L280.509 74.1819
L285.427 80.907
L290.345 87.7788
L295.263 94.7287
L300.181 101.687
L305.099 108.585
L310.017 115.353
L314.936 121.923
L319.854 128.23
L324.772 134.211
L329.69 139.807
L334.608 144.96
L339.526 149.62
L344.444 153.741
L349.362 157.28
L354.281 160.203
L359.199 162.481
L364.117 164.09
L369.035 165.014
L373.953 165.245
L378.871 164.78
L383.789 163.624
L388.707 161.788
L393.626 159.291
L398.544 156.157
L403.462 152.418
L408.38 148.111
L413.298 143.28
L418.216 137.972
L423.134 132.24
L428.052 126.142
L432.971 119.74
L437.889 113.095
L442.807 106.276
L447.725 99.3505
L452.643 92.3871
L457.561 85.4557
L462.479 78.6256
L467.397 71.965
L472.316 65.5405
L477.234 59.4163
L482.152 53.6535
L487.07 48.3098
L491.988 43.4384
L496.906 39.0882
L501.824 35.3025
L506.742 32.1193
L511.661 29.5702
L516.579 27.6808
L521.497 26.4699
L526.415 25.9497
L531.333 26.1253
L536.251 26.995
L541.169 28.5501
L546.088 30.775
L551.006 33.6476" style="fill:none;stroke:#ffb5b8;stroke-linecap:square;stroke-linejoin:miter;stroke-width:2.0;"/>
   </g>
   <g id="line2d_143">
    <path clip-path="url(#pe16bd34ac1)" d="
M64.111 144.851
L69.0291 139.687
L73.9473 134.083
L78.8654 128.094
L83.7835 121.78
L88.7017 115.205
L93.6198 108.433
L98.5379 101.534
L103.456 94.5746
L108.374 87.6257
L113.292 80.7563
L118.21 74.0352
L123.129 67.5295
L128.047 61.3042
L132.965 55.4215
L137.883 49.9401
L142.801 44.9149
L147.719 40.396
L152.637 36.4286
L157.555 33.0524
L162.474 30.301
L167.392 28.202
L172.31 26.7763
L177.228 26.0383
L182.146 25.9951
L187.064 26.6474
L191.982 27.9885
L196.9 30.0051
L201.819 32.677
L206.737 35.9775
L211.655 39.8737
L216.573 44.3266
L221.491 49.2917
L226.409 54.7195
L231.327 60.5556
L236.245 66.7418
L241.164 73.2162
L246.082 79.9142
L251 86.7689
L255.918 93.7117
L260.836 100.673
L265.754 107.584
L270.672 114.375
L275.591 120.978
L280.509 127.328
L285.427 133.361
L290.345 139.016
L295.263 144.237
L300.181 148.972
L305.099 153.174
L310.017 156.801
L314.936 159.816
L319.854 162.189
L324.772 163.897
L329.69 164.922
L334.608 165.255
L339.526 164.892
L344.444 163.836
L349.362 162.098
L354.281 159.696
L359.199 156.653
L364.117 153
L369.035 148.774
L373.953 144.016
L378.871 138.774
L383.789 133.101
L388.707 127.053
L393.626 120.691
L398.544 114.078
L403.462 107.28
L408.38 100.366
L413.298 93.4035
L418.216 86.4631
L423.134 79.614
L428.052 72.9245
L432.971 66.4614
L437.889 60.2894
L442.807 54.4702
L447.725 49.0618
L452.643 44.1184
L457.561 39.6892
L462.479 35.8186
L467.397 32.5452
L472.316 29.9018
L477.234 27.9147
L482.152 26.6039
L487.07 25.9823
L491.988 26.0562
L496.906 26.825
L501.824 28.2808
L506.742 30.4092
L511.661 33.1888
L516.579 36.592
L521.497 40.5847
L526.415 45.1269
L531.333 50.1734
L536.251 55.6738
L541.169 61.5729
L546.088 67.812
L551.006 74.3286" style="fill:none;stroke:#e24a33;stroke-linecap:square;stroke-linejoin:miter;stroke-width:2.0;"/>
   </g>
   <g id="line2d_144">
    <path clip-path="url(#pe16bd34ac1)" d="
M64.111 95.5918
L69.0291 88.637
L73.9473 81.7518
L78.8654 75.0048
L83.7835 68.4635
L88.7017 62.1933
L93.6198 56.2568
L98.5379 50.7133
L103.456 45.6182
L108.374 41.0225
L113.292 36.972
L118.21 33.5072
L123.129 30.6627
L128.047 28.467
L132.965 26.9419
L137.883 26.1028
L142.801 25.958
L147.719 26.5089
L152.637 27.7502
L157.555 29.6692
L162.474 32.2469
L167.392 35.4576
L172.31 39.2691
L177.228 43.6433
L182.146 48.5366
L187.064 53.9001
L191.982 59.6801
L196.9 65.819
L201.819 72.2553
L206.737 78.9248
L211.655 85.7608
L216.573 92.6951
L221.491 99.6583
L226.409 106.581
L231.327 113.394
L236.245 120.029
L241.164 126.419
L246.082 132.502
L251 138.216
L255.918 143.504
L260.836 148.313
L265.754 152.596
L270.672 156.309
L275.591 159.415
L280.509 161.884
L285.427 163.69
L290.345 164.816
L295.263 165.25
L300.181 164.988
L305.099 164.033
L310.017 162.394
L314.936 160.087
L319.854 157.136
L324.772 153.57
L329.69 149.425
L334.608 144.742
L339.526 139.568
L344.444 133.954
L349.362 127.958
L354.281 121.637
L359.199 115.057
L364.117 108.282
L369.035 101.38
L373.953 94.4204
L378.871 87.4725
L383.789 80.6057
L388.707 73.8887
L393.626 67.3885
L398.544 61.1701
L403.462 55.2956
L408.38 49.8238
L413.298 44.8092
L418.216 40.3021
L423.134 36.3474
L428.052 32.9846
L432.971 30.2474
L437.889 28.1631
L442.807 26.7525
L447.725 26.0298
L452.643 26.002
L457.561 26.6696
L462.479 28.0259
L467.397 30.0572
L472.316 32.7433
L477.234 36.0574
L482.152 39.9664
L487.07 44.4311
L491.988 49.407
L496.906 54.8444
L501.824 60.6889
L506.742 66.8821
L511.661 73.3623
L516.579 80.0645
L521.497 86.9218
L526.415 93.8658
L531.333 100.827
L536.251 107.736
L541.169 114.524
L546.088 121.122
L551.006 127.465" style="fill:none;stroke:#348abd;stroke-linecap:square;stroke-linejoin:miter;stroke-width:2.0;"/>
   </g>
   <g id="line2d_145">
    <path clip-path="url(#pe16bd34ac1)" d="
M64.111 46.3322
L69.0291 41.6606
L73.9473 37.5278
L78.8654 33.9752
L83.7835 31.0382
L88.7017 28.7462
L93.6198 27.1221
L98.5379 26.1822
L103.456 25.9357
L108.374 26.3853
L113.292 27.5263
L118.21 29.3474
L123.129 31.8304
L128.047 34.9505
L132.965 38.6765
L137.883 42.9712
L142.801 47.7916
L147.719 53.0896
L152.637 58.8124
L157.555 64.9026
L162.474 71.2994
L167.392 77.939
L172.31 84.7549
L177.228 91.6791
L182.146 98.6424
L187.064 105.575
L191.982 112.408
L196.9 119.073
L201.819 125.504
L206.737 131.635
L211.655 137.407
L216.573 142.76
L221.491 147.643
L226.409 152.005
L231.327 155.804
L236.245 159.001
L241.164 161.564
L246.082 163.468
L251 164.694
L255.918 165.23
L260.836 165.07
L265.754 164.215
L270.672 162.675
L275.591 160.465
L280.509 157.606
L285.427 154.128
L290.345 150.065
L295.263 145.458
L300.181 140.352
L305.099 134.799
L310.017 128.855
L314.936 122.578
L319.854 116.031
L324.772 109.281
L329.69 102.393
L334.608 95.4376
L339.526 88.4836
L344.444 81.6007
L349.362 74.8576
L354.281 68.3216
L359.199 62.0581
L364.117 56.1297
L369.035 50.5955
L373.953 45.511
L378.871 40.9268
L383.789 36.8888
L388.707 33.4374
L393.626 30.607
L398.544 28.4259
L403.462 26.9159
L408.38 26.0921
L413.298 25.9627
L418.216 26.529
L423.134 27.7853
L428.052 29.7192
L432.971 32.3112
L437.889 35.5356
L442.807 39.36
L447.725 43.7462
L452.643 48.6504
L457.561 54.0237
L462.479 59.8123
L467.397 65.9584
L472.316 72.4006
L477.234 79.0745
L482.152 85.9135
L487.07 92.8491
L491.988 99.8122
L496.906 106.733
L501.824 113.543
L506.742 120.173
L511.661 126.557
L516.579 132.633
L521.497 138.338
L526.415 143.616
L531.333 148.414
L536.251 152.684
L541.169 156.384
L546.088 159.477
L551.006 161.931" style="fill:none;stroke:#988ed5;stroke-linecap:square;stroke-linejoin:miter;stroke-width:2.0;"/>
   </g>
   <g id="line2d_146">
    <path clip-path="url(#pe16bd34ac1)" d="
M64.111 25.9283
L69.0291 26.2763
L73.9473 27.3169
L78.8654 29.0397
L83.7835 31.4275
L88.7017 34.4563
L93.6198 38.096
L98.5379 42.3102
L103.456 47.0567
L108.374 52.2882
L113.292 57.9524
L118.21 63.9927
L123.129 70.3487
L128.047 76.9569
L132.965 83.7513
L137.883 90.664
L142.801 97.6259
L147.719 104.568
L152.637 111.419
L157.555 118.113
L162.474 124.582
L167.392 130.761
L172.31 136.589
L177.228 142.007
L182.146 146.961
L187.064 151.402
L191.982 155.286
L196.9 158.573
L201.819 161.23
L206.737 163.232
L211.655 164.558
L216.573 165.195
L221.491 165.136
L226.409 164.383
L231.327 162.942
L236.245 160.829
L241.164 158.063
L246.082 154.673
L251 150.693
L255.918 146.163
L260.836 141.127
L265.754 135.636
L270.672 129.745
L275.591 123.513
L280.509 117.002
L285.427 110.277
L290.345 103.405
L295.263 96.4548
L300.181 89.4963
L305.099 82.5987
L310.017 75.8309
L314.936 69.2605
L319.854 62.9533
L324.772 56.9721
L329.69 51.3768
L334.608 46.2234
L339.526 41.5631
L344.444 37.4428
L349.362 33.9034
L354.281 30.9804
L359.199 28.703
L364.117 27.0939
L369.035 26.1692
L373.953 25.9381
L378.871 26.4031
L383.789 27.5593
L388.707 29.3953
L393.626 31.8927
L398.544 35.0265
L403.462 38.7655
L408.38 43.0723
L413.298 47.9039
L418.216 53.2119
L423.134 58.9434
L428.052 65.041
L432.971 71.4439
L437.889 78.0881
L442.807 84.9072
L447.725 91.833
L452.643 98.7964
L457.561 105.728
L462.479 112.558
L467.397 119.218
L472.316 125.643
L477.234 131.767
L482.152 137.53
L487.07 142.874
L491.988 147.745
L496.906 152.095
L501.824 155.881
L506.742 159.064
L511.661 161.613
L516.579 163.503
L521.497 164.714
L526.415 165.234
L531.333 165.058
L536.251 164.189
L541.169 162.633
L546.088 160.408
L551.006 157.536" style="fill:none;stroke:#777777;stroke-linecap:square;stroke-linejoin:miter;stroke-width:2.0;"/>
   </g>
   <g id="line2d_147">
    <path clip-path="url(#pe16bd34ac1)" d="
M64.111 46.3322
L69.0291 51.4961
L73.9473 57.1005
L78.8654 63.0895
L83.7835 69.4033
L88.7017 75.9787
L93.6198 82.7501
L98.5379 89.6498
L103.456 96.6089
L108.374 103.558
L113.292 110.427
L118.21 117.148
L123.129 123.654
L128.047 129.879
L132.965 135.762
L137.883 141.243
L142.801 146.269
L147.719 150.787
L152.637 154.755
L157.555 158.131
L162.474 160.882
L167.392 162.981
L172.31 164.407
L177.228 165.145
L182.146 165.188
L187.064 164.536
L191.982 163.195
L196.9 161.178
L201.819 158.507
L206.737 155.206
L211.655 151.31
L216.573 146.857
L221.491 141.892
L226.409 136.464
L231.327 130.628
L236.245 124.442
L241.164 117.967
L246.082 111.269
L251 104.415
L255.918 97.4718
L260.836 90.5102
L265.754 83.5994
L270.672 76.8084
L275.591 70.205
L280.509 63.8554
L285.427 57.8228
L290.345 52.1676
L295.263 46.9463
L300.181 42.211
L305.099 38.0091
L310.017 34.3826
L314.936 31.3676
L319.854 28.9943
L324.772 27.2865
L329.69 26.2611
L334.608 25.9285
L339.526 26.2919
L344.444 27.3477
L349.362 29.0854
L354.281 31.4876
L359.199 34.5304
L364.117 38.1832
L369.035 42.4096
L373.953 47.1675
L378.871 52.4091
L383.789 58.0822
L388.707 64.1301
L393.626 70.4924
L398.544 77.1054
L403.462 83.9032
L408.38 90.8177
L413.298 97.78
L418.216 104.72
L423.134 111.57
L428.052 118.259
L432.971 124.722
L437.889 130.894
L442.807 136.713
L447.725 142.122
L452.643 147.065
L457.561 151.494
L462.479 155.365
L467.397 158.638
L472.316 161.282
L477.234 163.269
L482.152 164.58
L487.07 165.201
L491.988 165.127
L496.906 164.359
L501.824 162.903
L506.742 160.774
L511.661 157.995
L516.579 154.592
L521.497 150.599
L526.415 146.057
L531.333 141.01
L536.251 135.51
L541.169 129.611
L546.088 123.372
L551.006 116.855" style="fill:none;stroke:#fbc15e;stroke-linecap:square;stroke-linejoin:miter;stroke-width:2.0;"/>
   </g>
   <g id="line2d_148">
    <path clip-path="url(#pe16bd34ac1)" d="
M64.111 95.5917
L69.0291 102.546
L73.9473 109.432
L78.8654 116.179
L83.7835 122.72
L88.7017 128.99
L93.6198 134.927
L98.5379 140.47
L103.456 145.565
L108.374 150.161
L113.292 154.212
L118.21 157.676
L123.129 160.521
L128.047 162.717
L132.965 164.242
L137.883 165.081
L142.801 165.226
L147.719 164.675
L152.637 163.433
L157.555 161.514
L162.474 158.937
L167.392 155.726
L172.31 151.914
L177.228 147.54
L182.146 142.647
L187.064 137.283
L191.982 131.503
L196.9 125.365
L201.819 118.928
L206.737 112.259
L211.655 105.423
L216.573 98.4884
L221.491 91.5252
L226.409 84.6026
L231.327 77.7899
L236.245 71.155
L241.164 64.7642
L246.082 58.6815
L251 52.9676
L255.918 47.6796
L260.836 42.8703
L265.754 38.5877
L270.672 34.8748
L275.591 31.7685
L280.509 29.2999
L285.427 27.4936
L290.345 26.3678
L295.263 25.9336
L300.181 26.1955
L305.099 27.1507
L310.017 28.7898
L314.936 31.0963
L319.854 34.0472
L324.772 37.6131
L329.69 41.7583
L334.608 46.4414
L339.526 51.6155
L344.444 57.2291
L349.362 63.226
L354.281 69.5462
L359.199 76.1267
L364.117 82.9017
L369.035 89.8035
L373.953 96.7631
L378.871 103.711
L383.789 110.578
L388.707 117.295
L393.626 123.795
L398.544 130.013
L403.462 135.888
L408.38 141.36
L413.298 146.374
L418.216 150.881
L423.134 154.836
L428.052 158.199
L432.971 160.936
L437.889 163.02
L442.807 164.431
L447.725 165.154
L452.643 165.181
L457.561 164.514
L462.479 163.158
L467.397 161.126
L472.316 158.44
L477.234 155.126
L482.152 151.217
L487.07 146.752
L491.988 141.776
L496.906 136.339
L501.824 130.495
L506.742 124.301
L511.661 117.821
L516.579 111.119
L521.497 104.262
L526.415 97.3177
L531.333 90.3565
L536.251 83.4475
L541.169 76.66
L546.088 70.0615
L551.006 63.7182" style="fill:none;stroke:#8eba42;stroke-linecap:square;stroke-linejoin:miter;stroke-width:2.0;"/>
   </g>
   <g id="patch_3">
    <path d="
M54.3731 23.1418
L560.744 23.1418" style="fill:none;stroke:#ffffff;stroke-linecap:square;stroke-linejoin:miter;stroke-width:0.5;"/>
   </g>
   <g id="patch_4">
    <path d="
M560.744 168.042
L560.744 23.1418" style="fill:none;stroke:#ffffff;stroke-linecap:square;stroke-linejoin:miter;stroke-width:0.5;"/>
   </g>
   <g id="patch_5">
    <path d="
M54.3731 168.042
L560.744 168.042" style="fill:none;stroke:#ffffff;stroke-linecap:square;stroke-linejoin:miter;stroke-width:0.5;"/>
   </g>
   <g id="patch_6">
    <path d="
M54.3731 168.042
L54.3731 23.1418" style="fill:none;stroke:#ffffff;stroke-linecap:square;stroke-linejoin:miter;stroke-width:0.5;"/>
   </g>
   <g id="text_14">
    <!-- Hello -->
    <defs>
     <path d="
M56.2031 29.5938
L56.2031 25.2031
L14.8906 25.2031
Q15.4844 15.9219 20.4844 11.0625
Q25.4844 6.20312 34.4219 6.20312
Q39.5938 6.20312 44.4531 7.46875
Q49.3125 8.73438 54.1094 11.2812
L54.1094 2.78125
Q49.2656 0.734375 44.1875 -0.34375
Q39.1094 -1.42188 33.8906 -1.42188
Q20.7969 -1.42188 13.1562 6.1875
Q5.51562 13.8125 5.51562 26.8125
Q5.51562 40.2344 12.7656 48.1094
Q20.0156 56 32.3281 56
Q43.3594 56 49.7812 48.8906
Q56.2031 41.7969 56.2031 29.5938
M47.2188 32.2344
Q47.125 39.5938 43.0938 43.9844
Q39.0625 48.3906 32.4219 48.3906
Q24.9062 48.3906 20.3906 44.1406
Q15.875 39.8906 15.1875 32.1719
z
" id="BitstreamVeraSans-Roman-65"/>
     <path d="
M30.6094 48.3906
Q23.3906 48.3906 19.1875 42.75
Q14.9844 37.1094 14.9844 27.2969
Q14.9844 17.4844 19.1562 11.8438
Q23.3438 6.20312 30.6094 6.20312
Q37.7969 6.20312 41.9844 11.8594
Q46.1875 17.5312 46.1875 27.2969
Q46.1875 37.0156 41.9844 42.7031
Q37.7969 48.3906 30.6094 48.3906
M30.6094 56
Q42.3281 56 49.0156 48.375
Q55.7188 40.7656 55.7188 27.2969
Q55.7188 13.875 49.0156 6.21875
Q42.3281 -1.42188 30.6094 -1.42188
Q18.8438 -1.42188 12.1719 6.21875
Q5.51562 13.875 5.51562 27.2969
Q5.51562 40.7656 12.1719 48.375
Q18.8438 56 30.6094 56" id="BitstreamVeraSans-Roman-6f"/>
     <path d="
M9.42188 75.9844
L18.4062 75.9844
L18.4062 0
L9.42188 0
z
" id="BitstreamVeraSans-Roman-6c"/>
     <path d="
M9.8125 72.9062
L19.6719 72.9062
L19.6719 43.0156
L55.5156 43.0156
L55.5156 72.9062
L65.375 72.9062
L65.375 0
L55.5156 0
L55.5156 34.7188
L19.6719 34.7188
L19.6719 0
L9.8125 0
z
" id="BitstreamVeraSans-Roman-48"/>
    </defs>
    <g transform="translate(290.407707772 18.14175)scale(0.144 -0.144)">
     <use xlink:href="#BitstreamVeraSans-Roman-48"/>
     <use x="75.1953125" xlink:href="#BitstreamVeraSans-Roman-65"/>
     <use x="136.71875" xlink:href="#BitstreamVeraSans-Roman-6c"/>
     <use x="164.501953125" xlink:href="#BitstreamVeraSans-Roman-6c"/>
     <use x="192.28515625" xlink:href="#BitstreamVeraSans-Roman-6f"/>
    </g>
   </g>
  </g>
 </g>
 <defs>
  <clipPath id="pe16bd34ac1">
   <rect height="144.9" width="506.370415544" x="54.373125" y="23.14175"/>
  </clipPath>
 </defs>
</svg>
