<?xml version="1.0" encoding="utf-8" standalone="no"?>
<!DOCTYPE svg PUBLIC "-//W3C//DTD SVG 1.1//EN"
  "http://www.w3.org/Graphics/SVG/1.1/DTD/svg11.dtd">
<!-- Created with matplotlib (http://matplotlib.org/) -->
<svg height="201pt" version="1.1" viewBox="0 0 251 201" width="251pt" xmlns="http://www.w3.org/2000/svg" xmlns:xlink="http://www.w3.org/1999/xlink">
 <defs>
  <style type="text/css">
*{stroke-linecap:butt;stroke-linejoin:round;}
  </style>
 </defs>
 <g id="figure_1">
  <g id="patch_1">
   <path d="
M0 201.098
L251.418 201.098
L251.418 0
L0 0
z
" style="fill:#607d8b;"/>
  </g>
  <g id="axes_1">
   <g id="patch_2">
    <path d="
M37.7594 176.22
L240.668 176.22
L240.668 8.81983
L37.7594 8.81983
z
" style="fill:#607d8b;"/>
   </g>
   <g id="matplotlib.axis_1">
    <g id="xtick_1">
     <g id="line2d_1">
      <path clip-path="url(#p2e582d463b)" d="
M41.6615 176.22
L41.6615 8.81983" style="fill:none;stroke:#ffffff;stroke-dasharray:6.000000,6.000000;stroke-dashoffset:0.0;stroke-linejoin:miter;stroke-width:0.1;"/>
     </g>
     <g id="line2d_2">
      <defs>
       <path d="
M0 0
L0 4" id="mb6a6ebaedb" style="stroke:#212121;stroke-width:0.5;"/>
      </defs>
      <g>
       <use style="fill:#212121;stroke:#212121;stroke-width:0.5;" x="41.6614729021" xlink:href="#mb6a6ebaedb" y="176.219831731"/>
      </g>
     </g>
     <g id="line2d_3">
      <defs>
       <path d="
M0 0
L0 -4" id="m297b8013ca" style="stroke:#212121;stroke-width:0.5;"/>
      </defs>
      <g>
       <use style="fill:#212121;stroke:#212121;stroke-width:0.5;" x="41.6614729021" xlink:href="#m297b8013ca" y="8.81983173077"/>
      </g>
     </g>
     <g id="text_1">
      <!-- 0 -->
      <defs>
       <path d="
M31.7812 66.4062
Q24.1719 66.4062 20.3281 58.9062
Q16.5 51.4219 16.5 36.375
Q16.5 21.3906 20.3281 13.8906
Q24.1719 6.39062 31.7812 6.39062
Q39.4531 6.39062 43.2812 13.8906
Q47.125 21.3906 47.125 36.375
Q47.125 51.4219 43.2812 58.9062
Q39.4531 66.4062 31.7812 66.4062
M31.7812 74.2188
Q44.0469 74.2188 50.5156 64.5156
Q56.9844 54.8281 56.9844 36.375
Q56.9844 17.9688 50.5156 8.26562
Q44.0469 -1.42188 31.7812 -1.42188
Q19.5312 -1.42188 13.0625 8.26562
Q6.59375 17.9688 6.59375 36.375
Q6.59375 54.8281 13.0625 64.5156
Q19.5312 74.2188 31.7812 74.2188" id="BitstreamVeraSans-Roman-30"/>
      </defs>
      <g style="fill:#212121;" transform="translate(39.1419416521 191.818269231)scale(0.1 -0.1)">
       <use xlink:href="#BitstreamVeraSans-Roman-30"/>
      </g>
     </g>
    </g>
    <g id="xtick_2">
     <g id="line2d_4">
      <path clip-path="url(#p2e582d463b)" d="
M81.0766 176.22
L81.0766 8.81983" style="fill:none;stroke:#ffffff;stroke-dasharray:6.000000,6.000000;stroke-dashoffset:0.0;stroke-linejoin:miter;stroke-width:0.1;"/>
     </g>
     <g id="line2d_5">
      <g>
       <use style="fill:#212121;stroke:#212121;stroke-width:0.5;" x="81.0766032263" xlink:href="#mb6a6ebaedb" y="176.219831731"/>
      </g>
     </g>
     <g id="line2d_6">
      <g>
       <use style="fill:#212121;stroke:#212121;stroke-width:0.5;" x="81.0766032263" xlink:href="#m297b8013ca" y="8.81983173077"/>
      </g>
     </g>
     <g id="text_2">
      <!-- 2 -->
      <defs>
       <path d="
M19.1875 8.29688
L53.6094 8.29688
L53.6094 0
L7.32812 0
L7.32812 8.29688
Q12.9375 14.1094 22.625 23.8906
Q32.3281 33.6875 34.8125 36.5312
Q39.5469 41.8438 41.4219 45.5312
Q43.3125 49.2188 43.3125 52.7812
Q43.3125 58.5938 39.2344 62.25
Q35.1562 65.9219 28.6094 65.9219
Q23.9688 65.9219 18.8125 64.3125
Q13.6719 62.7031 7.8125 59.4219
L7.8125 69.3906
Q13.7656 71.7812 18.9375 73
Q24.125 74.2188 28.4219 74.2188
Q39.75 74.2188 46.4844 68.5469
Q53.2188 62.8906 53.2188 53.4219
Q53.2188 48.9219 51.5312 44.8906
Q49.8594 40.875 45.4062 35.4062
Q44.1875 33.9844 37.6406 27.2188
Q31.1094 20.4531 19.1875 8.29688" id="BitstreamVeraSans-Roman-32"/>
      </defs>
      <g style="fill:#212121;" transform="translate(78.7625407263 191.818269231)scale(0.1 -0.1)">
       <use xlink:href="#BitstreamVeraSans-Roman-32"/>
      </g>
     </g>
    </g>
    <g id="xtick_3">
     <g id="line2d_7">
      <path clip-path="url(#p2e582d463b)" d="
M120.492 176.22
L120.492 8.81983" style="fill:none;stroke:#ffffff;stroke-dasharray:6.000000,6.000000;stroke-dashoffset:0.0;stroke-linejoin:miter;stroke-width:0.1;"/>
     </g>
     <g id="line2d_8">
      <g>
       <use style="fill:#212121;stroke:#212121;stroke-width:0.5;" x="120.491733551" xlink:href="#mb6a6ebaedb" y="176.219831731"/>
      </g>
     </g>
     <g id="line2d_9">
      <g>
       <use style="fill:#212121;stroke:#212121;stroke-width:0.5;" x="120.491733551" xlink:href="#m297b8013ca" y="8.81983173077"/>
      </g>
     </g>
     <g id="text_3">
      <!-- 4 -->
      <defs>
       <path d="
M37.7969 64.3125
L12.8906 25.3906
L37.7969 25.3906
z

M35.2031 72.9062
L47.6094 72.9062
L47.6094 25.3906
L58.0156 25.3906
L58.0156 17.1875
L47.6094 17.1875
L47.6094 0
L37.7969 0
L37.7969 17.1875
L4.89062 17.1875
L4.89062 26.7031
z
" id="BitstreamVeraSans-Roman-34"/>
      </defs>
      <g style="fill:#212121;" transform="translate(117.835483551 191.818269231)scale(0.1 -0.1)">
       <use xlink:href="#BitstreamVeraSans-Roman-34"/>
      </g>
     </g>
    </g>
    <g id="xtick_4">
     <g id="line2d_10">
      <path clip-path="url(#p2e582d463b)" d="
M159.907 176.22
L159.907 8.81983" style="fill:none;stroke:#ffffff;stroke-dasharray:6.000000,6.000000;stroke-dashoffset:0.0;stroke-linejoin:miter;stroke-width:0.1;"/>
     </g>
     <g id="line2d_11">
      <g>
       <use style="fill:#212121;stroke:#212121;stroke-width:0.5;" x="159.906863875" xlink:href="#mb6a6ebaedb" y="176.219831731"/>
      </g>
     </g>
     <g id="line2d_12">
      <g>
       <use style="fill:#212121;stroke:#212121;stroke-width:0.5;" x="159.906863875" xlink:href="#m297b8013ca" y="8.81983173077"/>
      </g>
     </g>
     <g id="text_4">
      <!-- 6 -->
      <defs>
       <path d="
M33.0156 40.375
Q26.375 40.375 22.4844 35.8281
Q18.6094 31.2969 18.6094 23.3906
Q18.6094 15.5312 22.4844 10.9531
Q26.375 6.39062 33.0156 6.39062
Q39.6562 6.39062 43.5312 10.9531
Q47.4062 15.5312 47.4062 23.3906
Q47.4062 31.2969 43.5312 35.8281
Q39.6562 40.375 33.0156 40.375
M52.5938 71.2969
L52.5938 62.3125
Q48.875 64.0625 45.0938 64.9844
Q41.3125 65.9219 37.5938 65.9219
Q27.8281 65.9219 22.6719 59.3281
Q17.5312 52.7344 16.7969 39.4062
Q19.6719 43.6562 24.0156 45.9219
Q28.375 48.1875 33.5938 48.1875
Q44.5781 48.1875 50.9531 41.5156
Q57.3281 34.8594 57.3281 23.3906
Q57.3281 12.1562 50.6875 5.35938
Q44.0469 -1.42188 33.0156 -1.42188
Q20.3594 -1.42188 13.6719 8.26562
Q6.98438 17.9688 6.98438 36.375
Q6.98438 53.6562 15.1875 63.9375
Q23.3906 74.2188 37.2031 74.2188
Q40.9219 74.2188 44.7031 73.4844
Q48.4844 72.75 52.5938 71.2969" id="BitstreamVeraSans-Roman-36"/>
      </defs>
      <g style="fill:#212121;" transform="translate(157.389676375 191.818269231)scale(0.1 -0.1)">
       <use xlink:href="#BitstreamVeraSans-Roman-36"/>
      </g>
     </g>
    </g>
    <g id="xtick_5">
     <g id="line2d_13">
      <path clip-path="url(#p2e582d463b)" d="
M199.322 176.22
L199.322 8.81983" style="fill:none;stroke:#ffffff;stroke-dasharray:6.000000,6.000000;stroke-dashoffset:0.0;stroke-linejoin:miter;stroke-width:0.1;"/>
     </g>
     <g id="line2d_14">
      <g>
       <use style="fill:#212121;stroke:#212121;stroke-width:0.5;" x="199.321994199" xlink:href="#mb6a6ebaedb" y="176.219831731"/>
      </g>
     </g>
     <g id="line2d_15">
      <g>
       <use style="fill:#212121;stroke:#212121;stroke-width:0.5;" x="199.321994199" xlink:href="#m297b8013ca" y="8.81983173077"/>
      </g>
     </g>
     <g id="text_5">
      <!-- 8 -->
      <defs>
       <path d="
M31.7812 34.625
Q24.75 34.625 20.7188 30.8594
Q16.7031 27.0938 16.7031 20.5156
Q16.7031 13.9219 20.7188 10.1562
Q24.75 6.39062 31.7812 6.39062
Q38.8125 6.39062 42.8594 10.1719
Q46.9219 13.9688 46.9219 20.5156
Q46.9219 27.0938 42.8906 30.8594
Q38.875 34.625 31.7812 34.625
M21.9219 38.8125
Q15.5781 40.375 12.0312 44.7188
Q8.5 49.0781 8.5 55.3281
Q8.5 64.0625 14.7188 69.1406
Q20.9531 74.2188 31.7812 74.2188
Q42.6719 74.2188 48.875 69.1406
Q55.0781 64.0625 55.0781 55.3281
Q55.0781 49.0781 51.5312 44.7188
Q48 40.375 41.7031 38.8125
Q48.8281 37.1562 52.7969 32.3125
Q56.7812 27.4844 56.7812 20.5156
Q56.7812 9.90625 50.3125 4.23438
Q43.8438 -1.42188 31.7812 -1.42188
Q19.7344 -1.42188 13.25 4.23438
Q6.78125 9.90625 6.78125 20.5156
Q6.78125 27.4844 10.7812 32.3125
Q14.7969 37.1562 21.9219 38.8125
M18.3125 54.3906
Q18.3125 48.7344 21.8438 45.5625
Q25.3906 42.3906 31.7812 42.3906
Q38.1406 42.3906 41.7188 45.5625
Q45.3125 48.7344 45.3125 54.3906
Q45.3125 60.0625 41.7188 63.2344
Q38.1406 66.4062 31.7812 66.4062
Q25.3906 66.4062 21.8438 63.2344
Q18.3125 60.0625 18.3125 54.3906" id="BitstreamVeraSans-Roman-38"/>
      </defs>
      <g style="fill:#212121;" transform="translate(196.821994199 191.818269231)scale(0.1 -0.1)">
       <use xlink:href="#BitstreamVeraSans-Roman-38"/>
      </g>
     </g>
    </g>
    <g id="xtick_6">
     <g id="line2d_16">
      <path clip-path="url(#p2e582d463b)" d="
M238.737 176.22
L238.737 8.81983" style="fill:none;stroke:#ffffff;stroke-dasharray:6.000000,6.000000;stroke-dashoffset:0.0;stroke-linejoin:miter;stroke-width:0.1;"/>
     </g>
     <g id="line2d_17">
      <g>
       <use style="fill:#212121;stroke:#212121;stroke-width:0.5;" x="238.737124523" xlink:href="#mb6a6ebaedb" y="176.219831731"/>
      </g>
     </g>
     <g id="line2d_18">
      <g>
       <use style="fill:#212121;stroke:#212121;stroke-width:0.5;" x="238.737124523" xlink:href="#m297b8013ca" y="8.81983173077"/>
      </g>
     </g>
     <g id="text_6">
      <!-- 10 -->
      <defs>
       <path d="
M12.4062 8.29688
L28.5156 8.29688
L28.5156 63.9219
L10.9844 60.4062
L10.9844 69.3906
L28.4219 72.9062
L38.2812 72.9062
L38.2812 8.29688
L54.3906 8.29688
L54.3906 0
L12.4062 0
z
" id="BitstreamVeraSans-Roman-31"/>
      </defs>
      <g style="fill:#212121;" transform="translate(233.255874523 191.818269231)scale(0.1 -0.1)">
       <use xlink:href="#BitstreamVeraSans-Roman-31"/>
       <use x="63.623046875" xlink:href="#BitstreamVeraSans-Roman-30"/>
      </g>
     </g>
    </g>
   </g>
   <g id="matplotlib.axis_2">
    <g id="ytick_1">
     <g id="line2d_19">
      <path clip-path="url(#p2e582d463b)" d="
M37.7594 173.001
L240.668 173.001" style="fill:none;stroke:#ffffff;stroke-dasharray:6.000000,6.000000;stroke-dashoffset:0.0;stroke-linejoin:miter;stroke-width:0.1;"/>
     </g>
     <g id="line2d_20">
      <defs>
       <path d="
M0 0
L-4 0" id="mee318359a3" style="stroke:#212121;stroke-width:0.5;"/>
      </defs>
      <g>
       <use style="fill:#212121;stroke:#212121;stroke-width:0.5;" x="37.759375" xlink:href="#mee318359a3" y="173.000600962"/>
      </g>
     </g>
     <g id="line2d_21">
      <defs>
       <path d="
M0 0
L4 0" id="m1c8b12de94" style="stroke:#212121;stroke-width:0.5;"/>
      </defs>
      <g>
       <use style="fill:#212121;stroke:#212121;stroke-width:0.5;" x="240.668465909" xlink:href="#m1c8b12de94" y="173.000600962"/>
      </g>
     </g>
     <g id="text_7">
      <!-- −1.0 -->
      <defs>
       <path d="
M10.5938 35.5
L73.1875 35.5
L73.1875 27.2031
L10.5938 27.2031
z
" id="BitstreamVeraSans-Roman-2212"/>
       <path d="
M10.6875 12.4062
L21 12.4062
L21 0
L10.6875 0
z
" id="BitstreamVeraSans-Roman-2e"/>
      </defs>
      <g style="fill:#212121;" transform="translate(7.2 175.759975962)scale(0.1 -0.1)">
       <use xlink:href="#BitstreamVeraSans-Roman-2212"/>
       <use x="83.7890625" xlink:href="#BitstreamVeraSans-Roman-31"/>
       <use x="147.412109375" xlink:href="#BitstreamVeraSans-Roman-2e"/>
       <use x="179.19921875" xlink:href="#BitstreamVeraSans-Roman-30"/>
      </g>
     </g>
    </g>
    <g id="ytick_2">
     <g id="line2d_22">
      <path clip-path="url(#p2e582d463b)" d="
M37.7594 132.76
L240.668 132.76" style="fill:none;stroke:#ffffff;stroke-dasharray:6.000000,6.000000;stroke-dashoffset:0.0;stroke-linejoin:miter;stroke-width:0.1;"/>
     </g>
     <g id="line2d_23">
      <g>
       <use style="fill:#212121;stroke:#212121;stroke-width:0.5;" x="37.759375" xlink:href="#mee318359a3" y="132.760216346"/>
      </g>
     </g>
     <g id="line2d_24">
      <g>
       <use style="fill:#212121;stroke:#212121;stroke-width:0.5;" x="240.668465909" xlink:href="#m1c8b12de94" y="132.760216346"/>
      </g>
     </g>
     <g id="text_8">
      <!-- −0.5 -->
      <defs>
       <path d="
M10.7969 72.9062
L49.5156 72.9062
L49.5156 64.5938
L19.8281 64.5938
L19.8281 46.7344
Q21.9688 47.4688 24.1094 47.8281
Q26.2656 48.1875 28.4219 48.1875
Q40.625 48.1875 47.75 41.5
Q54.8906 34.8125 54.8906 23.3906
Q54.8906 11.625 47.5625 5.09375
Q40.2344 -1.42188 26.9062 -1.42188
Q22.3125 -1.42188 17.5469 -0.640625
Q12.7969 0.140625 7.71875 1.70312
L7.71875 11.625
Q12.1094 9.23438 16.7969 8.0625
Q21.4844 6.89062 26.7031 6.89062
Q35.1562 6.89062 40.0781 11.3281
Q45.0156 15.7656 45.0156 23.3906
Q45.0156 31 40.0781 35.4375
Q35.1562 39.8906 26.7031 39.8906
Q22.75 39.8906 18.8125 39.0156
Q14.8906 38.1406 10.7969 36.2812
z
" id="BitstreamVeraSans-Roman-35"/>
      </defs>
      <g style="fill:#212121;" transform="translate(7.409375 135.519591346)scale(0.1 -0.1)">
       <use xlink:href="#BitstreamVeraSans-Roman-2212"/>
       <use x="83.7890625" xlink:href="#BitstreamVeraSans-Roman-30"/>
       <use x="147.412109375" xlink:href="#BitstreamVeraSans-Roman-2e"/>
       <use x="179.19921875" xlink:href="#BitstreamVeraSans-Roman-35"/>
      </g>
     </g>
    </g>
    <g id="ytick_3">
     <g id="line2d_25">
      <path clip-path="url(#p2e582d463b)" d="
M37.7594 92.5198
L240.668 92.5198" style="fill:none;stroke:#ffffff;stroke-dasharray:6.000000,6.000000;stroke-dashoffset:0.0;stroke-linejoin:miter;stroke-width:0.1;"/>
     </g>
     <g id="line2d_26">
      <g>
       <use style="fill:#212121;stroke:#212121;stroke-width:0.5;" x="37.759375" xlink:href="#mee318359a3" y="92.5198317308"/>
      </g>
     </g>
     <g id="line2d_27">
      <g>
       <use style="fill:#212121;stroke:#212121;stroke-width:0.5;" x="240.668465909" xlink:href="#m1c8b12de94" y="92.5198317308"/>
      </g>
     </g>
     <g id="text_9">
      <!-- 0.0 -->
      <g style="fill:#212121;" transform="translate(15.1796875 95.2792067308)scale(0.1 -0.1)">
       <use xlink:href="#BitstreamVeraSans-Roman-30"/>
       <use x="63.623046875" xlink:href="#BitstreamVeraSans-Roman-2e"/>
       <use x="95.41015625" xlink:href="#BitstreamVeraSans-Roman-30"/>
      </g>
     </g>
    </g>
    <g id="ytick_4">
     <g id="line2d_28">
      <path clip-path="url(#p2e582d463b)" d="
M37.7594 52.2794
L240.668 52.2794" style="fill:none;stroke:#ffffff;stroke-dasharray:6.000000,6.000000;stroke-dashoffset:0.0;stroke-linejoin:miter;stroke-width:0.1;"/>
     </g>
     <g id="line2d_29">
      <g>
       <use style="fill:#212121;stroke:#212121;stroke-width:0.5;" x="37.759375" xlink:href="#mee318359a3" y="52.2794471154"/>
      </g>
     </g>
     <g id="line2d_30">
      <g>
       <use style="fill:#212121;stroke:#212121;stroke-width:0.5;" x="240.668465909" xlink:href="#m1c8b12de94" y="52.2794471154"/>
      </g>
     </g>
     <g id="text_10">
      <!-- 0.5 -->
      <g style="fill:#212121;" transform="translate(15.3890625 55.0388221154)scale(0.1 -0.1)">
       <use xlink:href="#BitstreamVeraSans-Roman-30"/>
       <use x="63.623046875" xlink:href="#BitstreamVeraSans-Roman-2e"/>
       <use x="95.41015625" xlink:href="#BitstreamVeraSans-Roman-35"/>
      </g>
     </g>
    </g>
    <g id="ytick_5">
     <g id="line2d_31">
      <path clip-path="url(#p2e582d463b)" d="
M37.7594 12.0391
L240.668 12.0391" style="fill:none;stroke:#ffffff;stroke-dasharray:6.000000,6.000000;stroke-dashoffset:0.0;stroke-linejoin:miter;stroke-width:0.1;"/>
     </g>
     <g id="line2d_32">
      <g>
       <use style="fill:#212121;stroke:#212121;stroke-width:0.5;" x="37.759375" xlink:href="#mee318359a3" y="12.0390625"/>
      </g>
     </g>
     <g id="line2d_33">
      <g>
       <use style="fill:#212121;stroke:#212121;stroke-width:0.5;" x="240.668465909" xlink:href="#m1c8b12de94" y="12.0390625"/>
      </g>
     </g>
     <g id="text_11">
      <!-- 1.0 -->
      <g style="fill:#212121;" transform="translate(15.61875 14.7984375)scale(0.1 -0.1)">
       <use xlink:href="#BitstreamVeraSans-Roman-31"/>
       <use x="63.623046875" xlink:href="#BitstreamVeraSans-Roman-2e"/>
       <use x="95.41015625" xlink:href="#BitstreamVeraSans-Roman-30"/>
      </g>
     </g>
    </g>
   </g>
   <g id="line2d_34">
    <path clip-path="url(#p2e582d463b)" d="
M41.6615 92.5198
L43.6322 84.4852
L45.603 76.5308
L47.5737 68.7361
L49.5445 61.1791
L51.5153 53.9353
L53.486 47.077
L55.4568 40.6727
L57.4275 34.7865
L59.3983 29.4771
L61.369 24.7976
L63.3398 20.7948
L65.3106 17.5086
L67.2813 14.9719
L69.2521 13.2101
L71.2228 12.2407
L73.1936 12.0734
L75.1643 12.7099
L77.1351 14.1438
L79.1058 16.3609
L81.0766 19.3389
L83.0474 23.0481
L85.0181 27.4514
L86.9889 32.5049
L88.9596 38.158
L90.9304 44.3543
L92.9011 51.0319
L94.8719 58.124
L96.8427 65.5597
L98.8134 73.2649
L100.784 81.1624
L102.755 89.1734
L104.726 97.2178
L106.696 105.215
L108.667 113.086
L110.638 120.751
L112.609 128.134
L114.579 135.161
L116.55 141.763
L118.521 147.872
L120.492 153.428
L122.462 158.375
L124.433 162.665
L126.404 166.254
L128.375 169.105
L130.346 171.192
L132.316 172.493
L134.287 172.994
L136.258 172.692
L138.229 171.588
L140.199 169.695
L142.17 167.03
L144.141 163.621
L146.112 159.501
L148.082 154.713
L150.053 149.302
L152.024 143.325
L153.995 136.839
L155.965 129.911
L157.936 122.61
L159.907 115.007
L161.878 107.18
L163.848 99.2069
L165.819 91.1666
L167.79 83.1399
L169.761 75.2068
L171.731 67.4467
L173.702 59.9372
L175.673 52.7532
L177.644 45.9666
L179.614 39.645
L181.585 33.8518
L183.556 28.6448
L185.527 24.076
L187.497 20.1911
L189.468 17.0289
L191.439 14.6209
L193.41 12.9913
L195.38 12.1563
L197.351 12.1243
L199.322 12.8955
L201.293 14.4624
L203.264 16.8091
L205.234 19.9123
L207.205 23.7411
L209.176 28.257
L211.147 33.415
L213.117 39.1636
L215.088 45.4452
L217.059 52.1973
L219.03 59.3522
L221 66.8386
L222.971 74.5815
L224.942 82.5036
L226.913 90.5259
L228.883 98.5681
L230.854 106.55
L232.825 114.391
L234.796 122.014
L236.766 129.343" style="fill:none;stroke:#e24a33;stroke-linecap:square;stroke-linejoin:miter;stroke-width:2.0;"/>
   </g>
   <g id="line2d_35">
    <path clip-path="url(#p2e582d463b)" d="
M41.6615 35.6113
L43.6322 30.2143
L45.603 25.4397
L47.5737 21.3355
L49.5445 17.9424
L51.5153 15.2945
L53.486 13.4183
L55.4568 12.3324
L57.4275 12.0476
L59.3983 12.567
L61.369 13.8852
L63.3398 15.9891
L65.3106 18.8577
L67.2813 22.4622
L69.2521 26.7668
L71.2228 31.7283
L73.1936 37.2973
L75.1643 43.418
L77.1351 50.0294
L79.1058 57.0652
L81.0766 64.4554
L83.0474 72.1259
L85.0181 80.0002
L86.9889 87.9996
L88.9596 96.0442
L90.9304 104.054
L92.9011 111.948
L94.8719 119.648
L96.8427 127.077
L98.8134 134.16
L100.784 140.828
L102.755 147.013
L104.726 152.653
L106.696 157.693
L108.667 162.081
L110.638 165.775
L112.609 168.736
L114.579 170.936
L116.55 172.353
L118.521 172.971
L120.492 172.786
L122.462 171.799
L124.433 170.02
L126.404 167.466
L128.375 164.164
L130.346 160.146
L132.316 155.452
L134.287 150.129
L136.258 144.231
L138.229 137.816
L140.199 130.948
L142.17 123.696
L144.141 116.133
L146.112 108.334
L148.082 100.377
L150.053 92.3417
L152.024 84.308
L153.995 76.3563
L155.965 68.5661
L157.936 61.0152
L159.907 53.7791
L161.878 46.9301
L163.848 40.5366
L165.819 34.6625
L167.79 29.3665
L169.761 24.7015
L171.731 20.7142
L173.702 17.4443
L175.673 14.9245
L177.644 13.18
L179.614 12.2283
L181.585 12.0788
L183.556 12.733
L185.527 14.1845
L187.497 16.4186
L189.468 19.4132
L191.439 23.1382
L193.41 27.5564
L195.38 32.6237
L197.351 38.2895
L199.322 44.4971
L201.293 51.1846
L203.264 58.2851
L205.234 65.7276
L207.205 73.4378
L209.176 81.3387
L211.147 89.3513
L213.117 97.3956
L215.088 105.391
L217.059 113.258
L219.03 120.918
L221 128.294
L222.971 135.312
L224.942 141.903
L226.913 148.001
L228.883 153.544
L230.854 158.478
L232.825 162.752
L234.796 166.325
L236.766 169.16" style="fill:none;stroke:#348abd;stroke-linecap:square;stroke-linejoin:miter;stroke-width:2.0;"/>
   </g>
   <g id="line2d_36">
    <path clip-path="url(#p2e582d463b)" d="
M41.6615 12.0391
L43.6322 12.4411
L45.603 13.6433
L47.5737 15.6336
L49.5445 18.3921
L51.5153 21.8913
L53.486 26.0962
L55.4568 30.9647
L57.4275 36.4483
L59.3983 42.4922
L61.369 49.0359
L63.3398 56.0141
L65.3106 63.357
L67.2813 70.9913
L69.2521 78.8407
L71.2228 86.8268
L73.1936 94.8698
L75.1643 102.889
L77.1351 110.805
L79.1058 118.538
L81.0766 126.012
L83.0474 133.15
L85.0181 139.883
L86.9889 146.142
L88.9596 151.866
L90.9304 156.996
L92.9011 161.483
L94.8719 165.28
L96.8427 168.351
L98.8134 170.663
L100.784 172.195
L102.755 172.931
L104.726 172.863
L106.696 171.993
L108.667 170.328
L110.638 167.887
L112.609 164.692
L114.579 160.776
L116.55 156.178
L118.521 150.943
L120.492 145.126
L122.462 138.782
L124.433 131.976
L126.404 124.776
L128.375 117.254
L130.346 109.485
L132.316 101.546
L134.287 93.5169
L136.258 85.4778
L138.229 77.5092
L140.199 69.6905
L142.17 62.0999
L144.141 54.8132
L146.112 47.9034
L148.082 41.4393
L150.053 35.4855
L152.024 30.1017
L153.995 25.3415
L155.965 21.2525
L157.936 17.8757
L159.907 15.2446
L161.878 13.3856
L163.848 12.3174
L165.819 12.0504
L167.79 12.5875
L169.761 13.9233
L171.731 16.0444
L173.702 18.9296
L175.673 22.5501
L177.644 26.8696
L179.614 31.8452
L181.585 37.427
L183.556 43.5592
L185.527 50.1807
L187.497 57.2252
L189.468 64.6224
L191.439 72.2982
L193.41 80.1762
L195.38 88.1775
L197.351 96.2221
L199.322 104.23
L201.293 112.12
L203.264 119.815
L205.234 127.237
L207.205 134.313
L209.176 140.97
L211.147 147.144
L213.117 152.771
L215.088 157.797
L217.059 162.171
L219.03 165.848
L221 168.793
L222.971 170.976
L224.942 172.375
L226.913 172.976
L228.883 172.773
L230.854 171.768
L232.825 169.972
L234.796 167.401
L236.766 164.083" style="fill:none;stroke:#988ed5;stroke-linecap:square;stroke-linejoin:miter;stroke-width:2.0;"/>
   </g>
   <g id="line2d_37">
    <path clip-path="url(#p2e582d463b)" d="
M41.6615 35.6113
L43.6322 41.577
L45.603 48.0517
L47.5737 54.9707
L49.5445 62.2648
L51.5153 69.8613
L53.486 77.6842
L55.4568 85.6553
L57.4275 93.695
L59.3983 101.723
L61.369 109.659
L63.3398 117.424
L65.3106 124.94
L67.2813 132.132
L69.2521 138.928
L71.2228 145.26
L73.1936 151.066
L75.1643 156.286
L77.1351 160.87
L79.1058 164.77
L81.0766 167.949
L83.0474 170.374
L85.0181 172.021
L86.9889 172.874
L88.9596 172.923
L90.9304 172.17
L92.9011 170.62
L94.8719 168.291
L96.8427 165.204
L98.8134 161.391
L100.784 156.89
L102.755 151.745
L104.726 146.009
L106.696 139.739
L108.667 132.996
L110.638 125.85
L112.609 118.37
L114.579 110.632
L116.55 102.713
L118.521 94.6918
L120.492 86.6492
L122.462 78.6653
L124.433 70.8198
L126.404 63.1911
L128.375 55.8554
L130.346 48.8861
L132.316 42.3528
L134.287 36.3207
L136.258 30.8502
L138.229 25.9958
L140.199 21.8061
L142.17 18.323
L144.141 15.5812
L146.112 13.6081
L148.082 12.4235
L150.053 12.0393
L152.024 12.4591
L153.995 13.6789
L155.965 15.6864
L157.936 18.4617
L159.907 21.9769
L161.878 26.1969
L163.848 31.0796
L165.819 36.5762
L167.79 42.6318
L169.761 49.1859
L171.731 56.1729
L173.702 63.5231
L175.673 71.163
L177.644 79.0163
L179.614 87.0045
L181.585 95.0478
L183.556 103.066
L185.527 110.979
L187.497 118.707
L189.468 126.174
L191.439 133.304
L193.41 140.027
L195.38 146.275
L197.351 151.986
L199.322 157.103
L201.293 161.575
L203.264 165.356
L205.234 168.41
L207.205 170.706
L209.176 172.22
L211.147 172.938
L213.117 172.853
L215.088 171.965
L217.059 170.283
L219.03 167.824
L221 164.613
L222.971 160.681
L224.942 156.068
L226.913 150.821
L228.883 144.991
L230.854 138.636
L232.825 131.821
L234.796 124.613
L236.766 117.085" style="fill:none;stroke:#777777;stroke-linecap:square;stroke-linejoin:miter;stroke-width:2.0;"/>
   </g>
   <g id="line2d_38">
    <path clip-path="url(#p2e582d463b)" d="
M41.6615 92.5198
L43.6322 100.555
L45.603 108.509
L47.5737 116.304
L49.5445 123.861
L51.5153 131.104
L53.486 137.963
L55.4568 144.367
L57.4275 150.253
L59.3983 155.563
L61.369 160.242
L63.3398 164.245
L65.3106 167.531
L67.2813 170.068
L69.2521 171.83
L71.2228 172.799
L73.1936 172.966
L75.1643 172.33
L77.1351 170.896
L79.1058 168.679
L81.0766 165.701
L83.0474 161.992
L85.0181 157.588
L86.9889 152.535
L88.9596 146.882
L90.9304 140.685
L92.9011 134.008
L94.8719 126.916
L96.8427 119.48
L98.8134 111.775
L100.784 103.877
L102.755 95.8663
L104.726 87.8218
L106.696 79.8243
L108.667 71.9537
L110.638 64.2885
L112.609 56.9054
L114.579 49.8782
L116.55 43.277
L118.521 37.1679
L120.492 31.6118
L122.462 26.6643
L124.433 22.3747
L126.404 18.7861
L128.375 15.9342
L130.346 13.8475
L132.316 12.5468
L134.287 12.0452
L136.258 12.3477
L138.229 13.4513
L140.199 15.3449
L142.17 18.0096
L144.141 21.4187
L146.112 25.5383
L148.082 30.3272
L150.053 35.7374
L152.024 41.715
L153.995 48.2002
L155.965 55.1283
L157.936 62.43
L159.907 70.0323
L161.878 77.8593
L163.848 85.8327
L165.819 93.873
L167.79 101.9
L169.761 109.833
L171.731 117.593
L173.702 125.102
L175.673 132.286
L177.644 139.073
L179.614 145.395
L181.585 151.188
L183.556 156.395
L185.527 160.964
L187.497 164.849
L189.468 168.011
L191.439 170.419
L193.41 172.048
L195.38 172.883
L197.351 172.915
L199.322 172.144
L201.293 170.577
L203.264 168.231
L205.234 165.127
L207.205 161.299
L209.176 156.783
L211.147 151.625
L213.117 145.876
L215.088 139.594
L217.059 132.842
L219.03 125.687
L221 118.201
L222.971 110.458
L224.942 102.536
L226.913 94.5138
L228.883 86.4716
L230.854 78.4899
L232.825 70.6483
L234.796 63.0253
L236.766 55.697" style="fill:none;stroke:#fbc15e;stroke-linecap:square;stroke-linejoin:miter;stroke-width:2.0;"/>
   </g>
   <g id="line2d_39">
    <path clip-path="url(#p2e582d463b)" d="
M41.6615 149.428
L43.6322 154.825
L45.603 159.6
L47.5737 163.704
L49.5445 167.097
L51.5153 169.745
L53.486 171.621
L55.4568 172.707
L57.4275 172.992
L59.3983 172.473
L61.369 171.154
L63.3398 169.051
L65.3106 166.182
L67.2813 162.577
L69.2521 158.273
L71.2228 153.311
L73.1936 147.742
L75.1643 141.622
L77.1351 135.01
L79.1058 127.974
L81.0766 120.584
L83.0474 112.914
L85.0181 105.039
L86.9889 97.04
L88.9596 88.9955
L90.9304 80.9861
L92.9011 73.092
L94.8719 65.392
L96.8427 57.963
L98.8134 50.8794
L100.784 44.2118
L102.755 38.0268
L104.726 32.3864
L106.696 27.3468
L108.667 22.9583
L110.638 19.2649
L112.609 16.3035
L114.579 14.1036
L116.55 12.6871
L118.521 12.0684
L120.492 12.2535
L122.462 13.2405
L124.433 15.0198
L126.404 17.5733
L128.375 20.8757
L130.346 24.894
L132.316 29.5879
L134.287 34.9107
L136.258 40.809
L138.229 47.2241
L140.199 54.0917
L142.17 61.3433
L144.141 68.9063
L146.112 76.7054
L148.082 84.6624
L150.053 92.6979
L152.024 100.732
L153.995 108.683
L155.965 116.474
L157.936 124.024
L159.907 131.261
L161.878 138.11
L163.848 144.503
L165.819 150.377
L167.79 155.673
L169.761 160.338
L171.731 164.325
L173.702 167.595
L175.673 170.115
L177.644 171.86
L179.614 172.811
L181.585 172.961
L183.556 172.307
L185.527 170.855
L187.497 168.621
L189.468 165.626
L191.439 161.902
L193.41 157.483
L195.38 152.416
L197.351 146.75
L199.322 140.543
L201.293 133.855
L203.264 126.755
L205.234 119.312
L207.205 111.602
L209.176 103.701
L211.147 95.6883
L213.117 87.6441
L215.088 79.6485
L217.059 71.7816
L219.03 64.1218
L221 56.7458
L222.971 49.7273
L224.942 43.1363
L226.913 37.0387
L228.883 31.4955
L230.854 26.562
L232.825 22.2876
L234.796 18.7149
L236.766 15.8796" style="fill:none;stroke:#8eba42;stroke-linecap:square;stroke-linejoin:miter;stroke-width:2.0;"/>
   </g>
   <g id="line2d_40">
    <path clip-path="url(#p2e582d463b)" d="
M41.6615 173.001
L43.6322 172.599
L45.603 171.396
L47.5737 169.406
L49.5445 166.648
L51.5153 163.148
L53.486 158.943
L55.4568 154.075
L57.4275 148.591
L59.3983 142.547
L61.369 136.004
L63.3398 129.026
L65.3106 121.683
L67.2813 114.048
L69.2521 106.199
L71.2228 98.2128
L73.1936 90.1698
L75.1643 82.1503
L77.1351 74.2344
L79.1058 66.5012
L81.0766 59.028
L83.0474 51.8894
L85.0181 45.1568
L86.9889 38.8974
L88.9596 33.1738
L90.9304 28.0432
L92.9011 23.5568
L94.8719 19.7594
L96.8427 16.6891
L98.8134 14.3764
L100.784 12.8445
L102.755 12.1087
L104.726 12.1763
L106.696 13.0467
L108.667 14.7112
L110.638 17.1531
L112.609 20.348
L114.579 24.2641
L116.55 28.8621
L118.521 34.0962
L120.492 39.9141
L122.462 46.2576
L124.433 53.0633
L126.404 60.2632
L128.375 67.7854
L130.346 75.5548
L132.316 83.4937
L134.287 91.5228
L136.258 99.5618
L138.229 107.53
L140.199 115.349
L142.17 122.94
L144.141 130.226
L146.112 137.136
L148.082 143.6
L150.053 149.554
L152.024 154.938
L153.995 159.698
L155.965 163.787
L157.936 167.164
L159.907 169.795
L161.878 171.654
L163.848 172.722
L165.819 172.989
L167.79 172.452
L169.761 171.116
L171.731 168.995
L173.702 166.11
L175.673 162.49
L177.644 158.17
L179.614 153.194
L181.585 147.613
L183.556 141.48
L185.527 134.859
L187.497 127.814
L189.468 120.417
L191.439 112.741
L193.41 104.863
L195.38 96.8622
L197.351 88.8175
L199.322 80.8099
L201.293 72.9192
L203.264 65.2244
L205.234 57.8023
L207.205 50.7271
L209.176 44.0695
L211.147 37.8959
L213.117 32.2682
L215.088 27.2424
L217.059 22.8689
L219.03 19.1914
L221 16.2465
L222.971 14.0637
L224.942 12.6648
L226.913 12.0638
L228.883 12.2666
L230.854 13.2714
L232.825 15.068
L234.796 17.6384
L236.766 20.957" style="fill:none;stroke:#ffb5b8;stroke-linecap:square;stroke-linejoin:miter;stroke-width:2.0;"/>
   </g>
   <g id="line2d_41">
    <path clip-path="url(#p2e582d463b)" d="
M41.6615 149.428
L43.6322 143.463
L45.603 136.988
L47.5737 130.069
L49.5445 122.775
L51.5153 115.178
L53.486 107.355
L55.4568 99.3844
L57.4275 91.3447
L59.3983 83.3168
L61.369 75.3808
L63.3398 67.616
L65.3106 60.1001
L67.2813 52.9081
L69.2521 46.1119
L71.2228 39.7794
L73.1936 33.9739
L75.1643 28.7533
L77.1351 24.1699
L79.1058 20.2694
L81.0766 17.0908
L83.0474 14.6659
L85.0181 13.0188
L86.9889 12.1661
L88.9596 12.1163
L90.9304 12.8698
L92.9011 14.4192
L94.8719 16.7489
L96.8427 19.8357
L98.8134 23.6487
L100.784 28.1499
L102.755 33.2943
L104.726 39.0304
L106.696 45.3009
L108.667 52.0433
L110.638 59.19
L112.609 66.6698
L114.579 74.4079
L116.55 82.327
L118.521 90.3479
L120.492 98.3904
L122.462 106.374
L124.433 114.22
L126.404 121.849
L128.375 129.184
L130.346 136.154
L132.316 142.687
L134.287 148.719
L136.258 154.189
L138.229 159.044
L140.199 163.234
L142.17 166.717
L144.141 169.458
L146.112 171.432
L148.082 172.616
L150.053 173
L152.024 172.581
L153.995 171.361
L155.965 169.353
L157.936 166.578
L159.907 163.063
L161.878 158.843
L163.848 153.96
L165.819 148.463
L167.79 142.408
L169.761 135.854
L171.731 128.867
L173.702 121.517
L175.673 113.877
L177.644 106.023
L179.614 98.0352
L181.585 89.9918
L183.556 81.9737
L185.527 74.061
L187.497 66.3328
L189.468 58.8662
L191.439 51.7358
L193.41 45.0129
L195.38 38.7648
L197.351 33.0537
L199.322 27.9368
L201.293 23.4651
L203.264 19.6835
L205.234 16.6296
L207.205 14.334
L209.176 12.8195
L211.147 12.1015
L213.117 12.1869
L215.088 13.075
L217.059 14.7569
L219.03 17.2157
L221 20.427
L222.971 24.3586
L224.942 28.9713
L226.913 34.2189
L228.883 40.049
L230.854 46.4034
L232.825 53.2186
L234.796 60.4264
L236.766 67.955" style="fill:none;stroke:#e24a33;stroke-linecap:square;stroke-linejoin:miter;stroke-width:2.0;"/>
   </g>
   <g id="line2d_42">
    <path clip-path="url(#p2e582d463b)" d="
M41.6615 92.5198
L43.6322 84.4852
L45.603 76.5308
L47.5737 68.7361
L49.5445 61.1791
L51.5153 53.9353
L53.486 47.077
L55.4568 40.6727
L57.4275 34.7865
L59.3983 29.4771
L61.369 24.7976
L63.3398 20.7948
L65.3106 17.5086
L67.2813 14.9719
L69.2521 13.2101
L71.2228 12.2407
L73.1936 12.0734
L75.1643 12.7099
L77.1351 14.1438
L79.1058 16.3609
L81.0766 19.3389
L83.0474 23.0481
L85.0181 27.4514
L86.9889 32.5049
L88.9596 38.158
L90.9304 44.3543
L92.9011 51.0319
L94.8719 58.124
L96.8427 65.5597
L98.8134 73.2649
L100.784 81.1624
L102.755 89.1734
L104.726 97.2178
L106.696 105.215
L108.667 113.086
L110.638 120.751
L112.609 128.134
L114.579 135.161
L116.55 141.763
L118.521 147.872
L120.492 153.428
L122.462 158.375
L124.433 162.665
L126.404 166.254
L128.375 169.105
L130.346 171.192
L132.316 172.493
L134.287 172.994
L136.258 172.692
L138.229 171.588
L140.199 169.695
L142.17 167.03
L144.141 163.621
L146.112 159.501
L148.082 154.713
L150.053 149.302
L152.024 143.325
L153.995 136.839
L155.965 129.911
L157.936 122.61
L159.907 115.007
L161.878 107.18
L163.848 99.2069
L165.819 91.1666
L167.79 83.1399
L169.761 75.2068
L171.731 67.4467
L173.702 59.9372
L175.673 52.7532
L177.644 45.9666
L179.614 39.645
L181.585 33.8518
L183.556 28.6448
L185.527 24.076
L187.497 20.1911
L189.468 17.0289
L191.439 14.6209
L193.41 12.9913
L195.38 12.1563
L197.351 12.1243
L199.322 12.8955
L201.293 14.4624
L203.264 16.8091
L205.234 19.9123
L207.205 23.7411
L209.176 28.257
L211.147 33.415
L213.117 39.1636
L215.088 45.4452
L217.059 52.1973
L219.03 59.3522
L221 66.8386
L222.971 74.5815
L224.942 82.5036
L226.913 90.5259
L228.883 98.5681
L230.854 106.55
L232.825 114.391
L234.796 122.014
L236.766 129.343" style="fill:none;stroke:#348abd;stroke-linecap:square;stroke-linejoin:miter;stroke-width:2.0;"/>
   </g>
   <g id="line2d_43">
    <path clip-path="url(#p2e582d463b)" d="
M41.6615 35.6113
L43.6322 30.2143
L45.603 25.4397
L47.5737 21.3355
L49.5445 17.9424
L51.5153 15.2945
L53.486 13.4183
L55.4568 12.3324
L57.4275 12.0476
L59.3983 12.567
L61.369 13.8852
L63.3398 15.9891
L65.3106 18.8577
L67.2813 22.4622
L69.2521 26.7668
L71.2228 31.7283
L73.1936 37.2973
L75.1643 43.418
L77.1351 50.0294
L79.1058 57.0652
L81.0766 64.4554
L83.0474 72.1259
L85.0181 80.0002
L86.9889 87.9996
L88.9596 96.0442
L90.9304 104.054
L92.9011 111.948
L94.8719 119.648
L96.8427 127.077
L98.8134 134.16
L100.784 140.828
L102.755 147.013
L104.726 152.653
L106.696 157.693
L108.667 162.081
L110.638 165.775
L112.609 168.736
L114.579 170.936
L116.55 172.353
L118.521 172.971
L120.492 172.786
L122.462 171.799
L124.433 170.02
L126.404 167.466
L128.375 164.164
L130.346 160.146
L132.316 155.452
L134.287 150.129
L136.258 144.231
L138.229 137.816
L140.199 130.948
L142.17 123.696
L144.141 116.133
L146.112 108.334
L148.082 100.377
L150.053 92.3417
L152.024 84.308
L153.995 76.3563
L155.965 68.5661
L157.936 61.0152
L159.907 53.7791
L161.878 46.9301
L163.848 40.5366
L165.819 34.6625
L167.79 29.3665
L169.761 24.7015
L171.731 20.7142
L173.702 17.4443
L175.673 14.9245
L177.644 13.18
L179.614 12.2283
L181.585 12.0788
L183.556 12.733
L185.527 14.1845
L187.497 16.4186
L189.468 19.4132
L191.439 23.1382
L193.41 27.5564
L195.38 32.6237
L197.351 38.2895
L199.322 44.4971
L201.293 51.1846
L203.264 58.2851
L205.234 65.7276
L207.205 73.4378
L209.176 81.3387
L211.147 89.3513
L213.117 97.3956
L215.088 105.391
L217.059 113.258
L219.03 120.918
L221 128.294
L222.971 135.312
L224.942 141.903
L226.913 148.001
L228.883 153.544
L230.854 158.478
L232.825 162.752
L234.796 166.325
L236.766 169.16" style="fill:none;stroke:#988ed5;stroke-linecap:square;stroke-linejoin:miter;stroke-width:2.0;"/>
   </g>
   <g id="line2d_44">
    <path clip-path="url(#p2e582d463b)" d="
M41.6615 12.0391
L43.6322 12.4411
L45.603 13.6433
L47.5737 15.6336
L49.5445 18.3921
L51.5153 21.8913
L53.486 26.0962
L55.4568 30.9647
L57.4275 36.4483
L59.3983 42.4922
L61.369 49.0359
L63.3398 56.0141
L65.3106 63.357
L67.2813 70.9913
L69.2521 78.8407
L71.2228 86.8268
L73.1936 94.8698
L75.1643 102.889
L77.1351 110.805
L79.1058 118.538
L81.0766 126.012
L83.0474 133.15
L85.0181 139.883
L86.9889 146.142
L88.9596 151.866
L90.9304 156.996
L92.9011 161.483
L94.8719 165.28
L96.8427 168.351
L98.8134 170.663
L100.784 172.195
L102.755 172.931
L104.726 172.863
L106.696 171.993
L108.667 170.328
L110.638 167.887
L112.609 164.692
L114.579 160.776
L116.55 156.178
L118.521 150.943
L120.492 145.126
L122.462 138.782
L124.433 131.976
L126.404 124.776
L128.375 117.254
L130.346 109.485
L132.316 101.546
L134.287 93.5169
L136.258 85.4778
L138.229 77.5092
L140.199 69.6905
L142.17 62.0999
L144.141 54.8132
L146.112 47.9034
L148.082 41.4393
L150.053 35.4855
L152.024 30.1017
L153.995 25.3415
L155.965 21.2525
L157.936 17.8757
L159.907 15.2446
L161.878 13.3856
L163.848 12.3174
L165.819 12.0504
L167.79 12.5875
L169.761 13.9233
L171.731 16.0444
L173.702 18.9296
L175.673 22.5501
L177.644 26.8696
L179.614 31.8452
L181.585 37.427
L183.556 43.5592
L185.527 50.1807
L187.497 57.2252
L189.468 64.6224
L191.439 72.2982
L193.41 80.1762
L195.38 88.1775
L197.351 96.2221
L199.322 104.23
L201.293 112.12
L203.264 119.815
L205.234 127.237
L207.205 134.313
L209.176 140.97
L211.147 147.144
L213.117 152.771
L215.088 157.797
L217.059 162.171
L219.03 165.848
L221 168.793
L222.971 170.976
L224.942 172.375
L226.913 172.976
L228.883 172.773
L230.854 171.768
L232.825 169.972
L234.796 167.401
L236.766 164.083" style="fill:none;stroke:#777777;stroke-linecap:square;stroke-linejoin:miter;stroke-width:2.0;"/>
   </g>
   <g id="line2d_45">
    <path clip-path="url(#p2e582d463b)" d="
M41.6615 35.6113
L43.6322 41.577
L45.603 48.0517
L47.5737 54.9707
L49.5445 62.2648
L51.5153 69.8613
L53.486 77.6842
L55.4568 85.6553
L57.4275 93.695
L59.3983 101.723
L61.369 109.659
L63.3398 117.424
L65.3106 124.94
L67.2813 132.132
L69.2521 138.928
L71.2228 145.26
L73.1936 151.066
L75.1643 156.286
L77.1351 160.87
L79.1058 164.77
L81.0766 167.949
L83.0474 170.374
L85.0181 172.021
L86.9889 172.874
L88.9596 172.923
L90.9304 172.17
L92.9011 170.62
L94.8719 168.291
L96.8427 165.204
L98.8134 161.391
L100.784 156.89
L102.755 151.745
L104.726 146.009
L106.696 139.739
L108.667 132.996
L110.638 125.85
L112.609 118.37
L114.579 110.632
L116.55 102.713
L118.521 94.6918
L120.492 86.6492
L122.462 78.6653
L124.433 70.8198
L126.404 63.1911
L128.375 55.8554
L130.346 48.8861
L132.316 42.3528
L134.287 36.3207
L136.258 30.8502
L138.229 25.9958
L140.199 21.8061
L142.17 18.323
L144.141 15.5812
L146.112 13.6081
L148.082 12.4235
L150.053 12.0393
L152.024 12.4591
L153.995 13.6789
L155.965 15.6864
L157.936 18.4617
L159.907 21.9769
L161.878 26.1969
L163.848 31.0796
L165.819 36.5762
L167.79 42.6318
L169.761 49.1859
L171.731 56.1729
L173.702 63.5231
L175.673 71.163
L177.644 79.0163
L179.614 87.0045
L181.585 95.0478
L183.556 103.066
L185.527 110.979
L187.497 118.707
L189.468 126.174
L191.439 133.304
L193.41 140.027
L195.38 146.275
L197.351 151.986
L199.322 157.103
L201.293 161.575
L203.264 165.356
L205.234 168.41
L207.205 170.706
L209.176 172.22
L211.147 172.938
L213.117 172.853
L215.088 171.965
L217.059 170.283
L219.03 167.824
L221 164.613
L222.971 160.681
L224.942 156.068
L226.913 150.821
L228.883 144.991
L230.854 138.636
L232.825 131.821
L234.796 124.613
L236.766 117.085" style="fill:none;stroke:#fbc15e;stroke-linecap:square;stroke-linejoin:miter;stroke-width:2.0;"/>
   </g>
   <g id="line2d_46">
    <path clip-path="url(#p2e582d463b)" d="
M41.6615 92.5198
L43.6322 100.555
L45.603 108.509
L47.5737 116.304
L49.5445 123.861
L51.5153 131.104
L53.486 137.963
L55.4568 144.367
L57.4275 150.253
L59.3983 155.563
L61.369 160.242
L63.3398 164.245
L65.3106 167.531
L67.2813 170.068
L69.2521 171.83
L71.2228 172.799
L73.1936 172.966
L75.1643 172.33
L77.1351 170.896
L79.1058 168.679
L81.0766 165.701
L83.0474 161.992
L85.0181 157.588
L86.9889 152.535
L88.9596 146.882
L90.9304 140.685
L92.9011 134.008
L94.8719 126.916
L96.8427 119.48
L98.8134 111.775
L100.784 103.877
L102.755 95.8663
L104.726 87.8218
L106.696 79.8243
L108.667 71.9537
L110.638 64.2885
L112.609 56.9054
L114.579 49.8782
L116.55 43.277
L118.521 37.1679
L120.492 31.6118
L122.462 26.6643
L124.433 22.3747
L126.404 18.7861
L128.375 15.9342
L130.346 13.8475
L132.316 12.5468
L134.287 12.0452
L136.258 12.3477
L138.229 13.4513
L140.199 15.3449
L142.17 18.0096
L144.141 21.4187
L146.112 25.5383
L148.082 30.3272
L150.053 35.7374
L152.024 41.715
L153.995 48.2002
L155.965 55.1283
L157.936 62.43
L159.907 70.0323
L161.878 77.8593
L163.848 85.8327
L165.819 93.873
L167.79 101.9
L169.761 109.833
L171.731 117.593
L173.702 125.102
L175.673 132.286
L177.644 139.073
L179.614 145.395
L181.585 151.188
L183.556 156.395
L185.527 160.964
L187.497 164.849
L189.468 168.011
L191.439 170.419
L193.41 172.048
L195.38 172.883
L197.351 172.915
L199.322 172.144
L201.293 170.577
L203.264 168.231
L205.234 165.127
L207.205 161.299
L209.176 156.783
L211.147 151.625
L213.117 145.876
L215.088 139.594
L217.059 132.842
L219.03 125.687
L221 118.201
L222.971 110.458
L224.942 102.536
L226.913 94.5138
L228.883 86.4716
L230.854 78.4899
L232.825 70.6483
L234.796 63.0253
L236.766 55.697" style="fill:none;stroke:#8eba42;stroke-linecap:square;stroke-linejoin:miter;stroke-width:2.0;"/>
   </g>
   <g id="patch_3">
    <path d="
M37.7594 8.81983
L240.668 8.81983" style="fill:none;stroke:#ffffff;stroke-linecap:square;stroke-linejoin:miter;stroke-width:0.5;"/>
   </g>
   <g id="patch_4">
    <path d="
M240.668 176.22
L240.668 8.81983" style="fill:none;stroke:#ffffff;stroke-linecap:square;stroke-linejoin:miter;stroke-width:0.5;"/>
   </g>
   <g id="patch_5">
    <path d="
M37.7594 176.22
L240.668 176.22" style="fill:none;stroke:#ffffff;stroke-linecap:square;stroke-linejoin:miter;stroke-width:0.5;"/>
   </g>
   <g id="patch_6">
    <path d="
M37.7594 176.22
L37.7594 8.81983" style="fill:none;stroke:#ffffff;stroke-linecap:square;stroke-linejoin:miter;stroke-width:0.5;"/>
   </g>
  </g>
 </g>
 <defs>
  <clipPath id="p2e582d463b">
   <rect height="167.4" width="202.909090909" x="37.759375" y="8.81983173077"/>
  </clipPath>
 </defs>
</svg>
